<?xml version="1.0" encoding="utf-8"?>
<svg viewBox="139.73 69.2942 236.036 171.0198" xmlns="http://www.w3.org/2000/svg">
  <path d="M 139.943 155.066 L 139.73 82.767 C 139.727 81.763 140.24 81.235 141.268 81.181 L 164.416 80 C 168.917 79.771 172.361 80.757 174.747 82.957 C 177.132 85.159 178.332 88.486 178.345 92.943 L 178.487 141.048 C 178.5 145.441 177.32 148.86 174.948 151.303 C 172.575 153.746 169.139 155.083 164.638 155.312 L 141.49 156.493 C 140.462 156.546 139.946 156.07 139.943 155.066 Z M 153.027 143.477 L 161.9 143.024 C 164.472 142.892 165.755 141.572 165.748 139.061 L 165.622 96.228 C 165.614 93.654 164.325 92.434 161.753 92.565 L 152.879 93.018 L 153.027 143.477 Z M 227.63 90.334 L 227.698 113.304 C 227.717 119.579 225.382 123.841 220.693 126.089 L 227.421 150.414 C 227.746 151.528 227.298 152.116 226.076 152.177 L 216.045 152.69 C 215.145 152.736 214.597 152.324 214.402 151.456 L 207.87 127.874 L 201.214 128.213 L 201.284 151.936 C 201.287 152.94 200.774 153.469 199.746 153.521 L 189.715 154.033 C 188.686 154.085 188.171 153.609 188.167 152.606 L 187.955 80.307 C 187.951 79.302 188.465 78.774 189.493 78.721 L 213.702 77.487 C 218.267 77.253 221.727 78.238 224.081 80.441 C 226.434 82.643 227.618 85.941 227.63 90.334 Z M 201.178 115.787 L 210.727 115.299 C 213.299 115.168 214.581 113.848 214.573 111.337 L 214.521 93.639 C 214.514 91.128 213.224 89.939 210.652 90.07 L 201.104 90.557 L 201.178 115.787 Z M 281.05 149.374 L 270.826 149.895 C 269.99 149.937 269.474 149.524 269.279 148.655 L 266.538 135.049 L 249.37 135.925 L 246.806 149.802 C 246.616 150.691 246.104 151.156 245.267 151.198 L 234.947 151.725 C 233.79 151.785 233.37 151.272 233.689 150.189 L 249.487 76.979 C 249.677 76.09 250.222 75.623 251.122 75.577 L 264.529 74.893 C 265.429 74.847 265.976 75.258 266.172 76.128 L 282.395 147.704 C 282.592 148.761 282.143 149.317 281.05 149.374 Z M 264.095 124.251 L 257.826 91.712 L 251.75 124.881 L 264.095 124.251 Z M 329.439 73.088 L 329.467 82.502 C 329.47 83.506 328.957 84.034 327.928 84.087 L 304.009 85.307 L 304.064 104.229 L 322.197 103.304 C 323.225 103.252 323.741 103.728 323.744 104.731 L 323.772 114.145 C 323.775 115.15 323.262 115.678 322.234 115.731 L 304.101 116.656 L 304.189 146.686 C 304.192 147.69 303.679 148.218 302.651 148.271 L 292.62 148.783 C 291.591 148.835 291.075 148.36 291.072 147.355 L 290.86 75.056 C 290.857 74.052 291.37 73.524 292.398 73.471 L 327.891 71.661 C 328.921 71.608 329.436 72.084 329.439 73.088 Z M 338.698 71.109 L 374.191 69.298 C 375.22 69.246 375.735 69.722 375.739 70.725 L 375.766 80.14 C 375.769 81.144 375.257 81.672 374.227 81.725 L 363.04 82.295 L 363.22 143.674 C 363.223 144.678 362.71 145.206 361.681 145.259 L 351.651 145.771 C 350.621 145.823 350.106 145.347 350.103 144.344 L 349.922 82.964 L 338.735 83.535 C 337.706 83.588 337.189 83.112 337.186 82.108 L 337.159 72.694 C 337.156 71.69 337.669 71.161 338.698 71.109 Z" style="fill: rgb(7, 6, 0);"/>
  <path d="M 146.136 166.338 L 152.381 166.019 C 152.84 165.996 153.077 166.208 153.079 166.659 L 153.119 169.757 C 153.124 170.208 152.897 170.442 152.435 170.466 L 147.155 170.735 C 146.234 170.782 145.78 171.254 145.79 172.154 L 145.839 175.959 C 145.845 176.833 146.312 177.247 147.233 177.2 L 150.445 177.036 L 150.428 175.69 C 150.423 175.242 150.649 175.005 151.108 174.982 L 154.389 174.814 C 154.848 174.791 155.082 175.005 155.085 175.452 L 155.105 176.799 L 156.554 176.724 C 157.014 176.701 157.246 176.915 157.253 177.363 L 157.289 180.462 C 157.295 180.912 157.067 181.148 156.605 181.171 L 155.156 181.245 L 155.292 192.156 C 155.294 192.606 155.066 192.841 154.607 192.864 L 146.46 193.28 C 144.827 193.363 143.578 193.013 142.717 192.224 C 141.855 191.438 141.416 190.259 141.395 188.687 L 141.316 182.153 C 141.312 181.547 141.509 181.015 141.918 180.554 C 142.328 180.096 142.842 179.794 143.466 179.651 L 143.463 179.585 C 142.837 179.504 142.316 179.254 141.897 178.837 C 141.481 178.421 141.266 177.912 141.258 177.304 L 141.189 171.444 C 141.167 169.87 141.577 168.651 142.423 167.775 C 143.262 166.9 144.5 166.421 146.136 166.338 Z M 150.496 181.482 L 147.285 181.647 C 146.364 181.694 145.911 182.166 145.923 183.065 L 145.978 187.508 C 145.986 188.408 146.451 188.833 147.373 188.786 L 150.583 188.622 L 150.496 181.482 Z" style="white-space: pre; paint-order: stroke; fill-opacity: 0; fill: rgb(199, 199, 199); stroke: rgb(0, 0, 0); stroke-width: 2px; transform-origin: 153.231px 241.03px;"/>
  <path d="M 199.938 164.601 L 199.928 174.017 C 199.927 175.02 199.412 175.549 198.383 175.602 L 174.464 176.822 L 174.445 195.748 L 192.577 194.822 C 193.606 194.771 194.12 195.246 194.119 196.251 L 194.109 205.666 C 194.108 206.671 193.593 207.199 192.564 207.252 L 174.432 208.176 L 174.401 238.213 C 174.4 239.218 173.886 239.746 172.856 239.799 L 162.826 240.31 C 161.797 240.363 161.283 239.887 161.284 238.882 L 161.358 166.569 C 161.359 165.565 161.874 165.037 162.903 164.984 L 198.396 163.173 C 199.425 163.12 199.939 163.596 199.938 164.601 Z M 221.668 224.88 L 221.731 163.488 C 221.733 162.484 221.219 162.008 220.19 162.061 L 210.159 162.573 C 209.131 162.626 208.615 163.154 208.615 164.158 L 208.54 236.471 C 208.539 237.476 209.053 237.952 210.082 237.899 L 244.611 236.137 C 245.639 236.085 246.154 235.557 246.155 234.552 L 246.165 225.136 C 246.166 224.132 245.652 223.656 244.623 223.708 L 221.668 224.88 Z M 252.917 222.155 L 252.967 173.946 C 252.971 169.553 254.164 166.133 256.545 163.69 C 258.927 161.245 262.368 159.909 266.869 159.679 L 277.672 159.128 C 282.173 158.898 285.611 159.884 287.988 162.085 C 290.364 164.287 291.55 167.584 291.546 171.978 L 291.496 220.187 C 291.492 224.581 290.299 228 287.918 230.445 C 285.536 232.888 282.095 234.225 277.594 234.455 L 266.792 235.006 C 262.291 235.235 258.852 234.25 256.475 232.049 C 254.098 229.847 252.913 226.55 252.917 222.155 Z M 269.601 222.717 L 275.195 222.431 C 277.767 222.3 279.055 220.979 279.057 218.468 L 279.102 174.967 C 279.104 172.456 277.82 171.267 275.248 171.398 L 269.654 171.683 C 267.082 171.814 265.795 173.135 265.792 175.646 L 265.747 219.147 C 265.745 221.658 267.029 222.848 269.601 222.717 Z M 352.033 155.334 L 361.196 154.866 C 362.546 154.798 363.157 155.426 363.027 156.751 L 354.659 228.734 C 354.593 229.93 353.917 230.561 352.632 230.626 L 343.18 231.108 C 342.022 231.168 341.315 230.638 341.059 229.522 L 331.072 187.474 L 320.901 230.645 C 320.579 231.728 319.871 232.298 318.778 232.354 L 309.132 232.846 C 307.847 232.911 307.172 232.35 307.109 231.16 L 299.274 160.003 C 299.146 158.692 299.758 158.001 301.109 157.932 L 310.271 157.465 C 311.493 157.402 312.167 157.964 312.295 159.15 L 316.011 203.025 L 316.493 203 L 326.087 158.353 C 326.345 157.21 327.053 156.609 328.211 156.549 L 333.998 156.254 C 335.154 156.195 335.862 156.724 336.118 157.841 L 345.524 201.519 L 346.006 201.494 L 350.006 157.226 C 350.136 156.028 350.812 155.397 352.033 155.334 Z" style=""/>
</svg>