<?xml version="1.0" encoding="utf-8"?>
<svg viewBox="144.081 159.625 162.246 40.375" xmlns="http://www.w3.org/2000/svg">
  <g>
    <path
      d="M 147.981 195.907 L 150.831 195.907 C 151.598 195.907 152.264 195.624 152.831 195.057 C 153.398 194.49 153.681 193.824 153.681 193.057 L 153.681 175.557 C 153.681 174.79 153.398 174.124 152.831 173.557 C 152.264 172.99 151.598 172.707 150.831 172.707 L 147.981 172.707 L 147.981 195.907 Z M 157.581 193.007 C 157.581 193.94 157.406 194.815 157.056 195.632 C 156.706 196.449 156.223 197.165 155.606 197.782 C 154.989 198.399 154.273 198.882 153.456 199.232 C 152.639 199.582 151.764 199.757 150.831 199.757 L 144.081 199.757 L 144.081 168.807 L 150.831 168.807 C 151.764 168.807 152.639 168.982 153.456 169.332 C 154.273 169.682 154.989 170.165 155.606 170.782 C 156.223 171.399 156.706 172.115 157.056 172.932 C 157.406 173.749 157.581 174.624 157.581 175.557 L 157.581 193.007 Z M 164.081 182.857 L 166.931 182.857 C 167.598 182.857 168.156 182.607 168.606 182.107 C 169.056 181.607 169.398 180.982 169.631 180.232 C 169.864 179.482 169.981 178.665 169.981 177.782 C 169.981 176.899 169.864 176.082 169.631 175.332 C 169.398 174.582 169.056 173.957 168.606 173.457 C 168.156 172.957 167.598 172.707 166.931 172.707 L 164.081 172.707 L 164.081 182.857 Z M 189.885 199.767 L 169.431 199.757 L 165.881 186.757 L 164.081 186.757 L 164.081 199.757 L 160.181 199.757 L 160.181 168.807 L 166.931 168.807 C 168.298 168.807 169.456 169.157 170.406 169.857 C 171.356 170.557 172.114 171.457 172.681 172.557 C 173.248 173.657 173.606 174.874 173.756 176.207 C 173.906 177.54 173.864 178.849 173.631 180.132 C 173.398 181.415 172.956 182.59 172.306 183.657 C 171.656 184.724 170.814 185.524 169.781 186.057 L 172.558 196.579 L 189.888 196.592 L 189.885 199.767 Z M 196.479 199.707 L 192.579 199.707 L 192.579 168.757 L 202.179 168.757 L 202.179 172.657 L 196.479 172.657 L 196.479 181.507 L 196.529 181.457 C 197.296 180.69 198.179 180.04 199.179 179.507 C 200.179 178.974 201.179 178.774 202.179 178.907 L 202.179 183.507 C 201.646 183.34 201.121 183.307 200.604 183.407 C 200.087 183.507 199.579 183.69 199.079 183.957 C 198.579 184.224 198.104 184.565 197.654 184.982 C 197.204 185.399 196.812 185.84 196.479 186.307 L 196.479 199.707 Z M 213.43 172.707 L 213.43 199.757 L 209.53 199.757 L 209.53 172.707 L 204.78 172.707 L 204.78 168.807 L 218.18 168.807 L 218.18 172.707 L 213.43 172.707 Z"
      style="white-space: pre; fill: white;" />
    <path
      d="M 227.017 184.431 L 227.017 187.423 C 227.017 187.733 227.112 187.968 227.301 188.129 C 227.49 188.289 227.7 188.381 227.929 188.404 L 227.929 189.728 C 227.631 189.717 227.347 189.659 227.077 189.556 C 226.808 189.453 226.564 189.304 226.346 189.109 C 226.117 189.316 225.856 189.47 225.564 189.573 C 225.271 189.676 224.97 189.728 224.661 189.728 C 224.363 189.728 224.076 189.682 223.801 189.591 C 223.526 189.499 223.276 189.358 223.053 189.169 C 222.829 188.98 222.651 188.742 222.519 188.455 C 222.388 188.168 222.322 187.836 222.322 187.458 L 222.322 185.428 C 222.322 185.073 222.382 184.76 222.502 184.491 C 222.623 184.222 222.78 183.989 222.975 183.794 C 222.78 183.599 222.623 183.364 222.502 183.089 C 222.382 182.814 222.322 182.498 222.322 182.143 L 222.322 181.214 C 222.322 180.836 222.388 180.504 222.519 180.217 C 222.651 179.93 222.829 179.692 223.053 179.503 C 223.276 179.314 223.526 179.173 223.801 179.081 C 224.076 178.99 224.363 178.944 224.661 178.944 C 224.948 178.944 225.231 178.99 225.512 179.081 C 225.793 179.173 226.046 179.314 226.269 179.503 C 226.492 179.692 226.67 179.93 226.802 180.217 C 226.934 180.504 227 180.836 227 181.214 L 225.658 181.214 C 225.658 180.881 225.552 180.635 225.34 180.475 C 225.128 180.314 224.896 180.24 224.644 180.251 C 224.391 180.24 224.159 180.314 223.947 180.475 C 223.735 180.635 223.629 180.881 223.629 181.214 L 223.629 182.143 C 223.629 182.464 223.729 182.711 223.93 182.883 C 224.131 183.055 224.351 183.141 224.592 183.141 L 225.624 183.141 L 225.624 182.143 L 226.966 182.143 L 226.966 183.141 L 227.877 183.141 L 227.877 184.465 L 227.017 184.431 Z M 225.641 187.2 L 225.641 184.448 L 224.609 184.448 C 224.368 184.448 224.148 184.528 223.947 184.689 C 223.746 184.849 223.646 185.09 223.646 185.411 L 223.646 187.441 C 223.646 187.773 223.752 188.019 223.964 188.18 C 224.176 188.341 224.408 188.415 224.661 188.404 C 224.913 188.415 225.145 188.341 225.357 188.18 C 225.57 188.019 225.643 187.773 225.643 187.441 L 225.641 187.2 Z"
      style="white-space: pre; stroke: rgb(0, 0, 0); fill-rule: nonzero; paint-order: markers stroke; stroke-width: 0.5px; fill: white;" />
    <path
      d="M 227.517 184.951 L 227.517 187.423 C 227.499 187.64 227.505 187.684 227.624 187.748 C 227.752 187.869 227.825 187.903 227.98 187.907 L 228.429 187.917 L 228.429 190.252 L 227.91 190.228 C 227.572 190.212 227.208 190.138 226.898 190.023 C 226.588 189.899 226.523 189.849 226.346 189.733 C 226.077 189.969 226.066 189.921 225.73 190.045 C 225.396 190.159 225.013 190.228 224.661 190.228 C 224.324 190.228 223.957 190.166 223.643 190.065 C 223.324 189.954 222.992 189.767 222.73 189.551 C 222.467 189.32 222.223 188.995 222.064 188.663 C 221.915 188.321 221.827 187.884 221.822 187.458 L 221.822 185.428 C 221.826 185.026 221.909 184.61 222.046 184.287 C 222.188 183.979 222.222 183.949 222.331 183.793 C 222.106 183.561 222.186 183.603 222.044 183.289 C 221.907 182.96 221.826 182.545 221.822 182.143 L 221.822 181.214 C 221.827 180.788 221.916 180.35 222.065 180.008 C 222.224 179.676 222.467 179.352 222.73 179.121 C 222.992 178.905 223.325 178.718 223.644 178.606 C 223.958 178.505 224.324 178.444 224.661 178.444 C 224.987 178.444 225.349 178.505 225.667 178.606 C 225.993 178.717 226.332 178.901 226.592 179.122 C 226.858 179.347 227.102 179.674 227.256 180.008 C 227.413 180.348 227.495 180.787 227.5 181.214 L 227.506 181.714 L 227.466 181.714 L 227.466 182.641 L 228.377 182.641 L 228.377 184.985 Z M 225.114 181.714 L 225.158 181.214 C 225.178 180.98 225.171 180.933 225.038 180.873 C 224.9 180.752 224.786 180.727 224.622 180.751 C 224.457 180.727 224.386 180.752 224.248 180.874 C 224.115 180.933 224.109 180.98 224.129 181.214 L 224.129 182.143 C 224.111 182.37 224.142 182.406 224.255 182.503 C 224.393 182.622 224.442 182.658 224.592 182.641 L 225.124 182.641 L 225.124 181.714 Z M 226.517 183.911 L 227.377 183.945 L 227.377 183.641 L 226.466 183.641 L 226.466 182.643 L 226.124 182.643 L 226.124 183.641 L 224.592 183.641 C 224.261 183.624 223.868 183.488 223.605 183.263 C 223.317 183.016 223.147 182.559 223.129 182.143 L 223.129 181.214 C 223.149 180.783 223.355 180.337 223.646 180.076 C 223.932 179.877 224.309 179.757 224.644 179.752 C 224.978 179.757 225.355 179.877 225.641 180.076 C 225.932 180.337 225.964 180.463 226.055 180.714 L 226.45 180.714 C 226.426 180.614 226.455 180.66 226.348 180.426 C 226.238 180.187 226.126 180.037 225.946 179.884 C 225.759 179.726 225.594 179.629 225.357 179.556 C 225.114 179.474 224.908 179.444 224.661 179.444 C 224.402 179.444 224.195 179.474 223.959 179.555 C 223.728 179.628 223.561 179.722 223.376 179.884 C 223.191 180.033 223.079 180.184 222.973 180.426 C 222.86 180.656 222.817 180.884 222.822 181.214 L 222.822 182.143 C 222.818 182.452 222.857 182.667 222.96 182.889 C 223.059 183.125 223.165 183.283 223.329 183.44 L 223.696 183.793 L 223.329 184.147 C 223.164 184.306 223.058 184.464 222.959 184.695 C 222.856 184.909 222.818 185.12 222.822 185.428 L 222.822 187.458 C 222.817 187.788 222.86 188.015 222.973 188.246 C 223.078 188.488 223.191 188.639 223.376 188.787 C 223.56 188.949 223.727 189.044 223.959 189.117 C 224.195 189.198 224.402 189.228 224.661 189.228 C 224.928 189.228 225.146 189.194 225.398 189.102 C 225.645 189.02 225.822 188.915 226.011 188.738 L 226.344 188.427 L 226.679 188.736 C 226.861 188.904 227.028 189.006 227.256 189.089 C 227.486 189.181 227.372 189.133 227.429 189.15 L 227.429 188.773 C 227.266 188.705 227.229 188.709 226.978 188.511 C 226.719 188.253 226.535 187.826 226.517 187.423 Z M 226.176 187.441 C 226.156 187.872 225.95 188.318 225.659 188.579 C 225.372 188.778 224.995 188.898 224.661 188.903 C 224.326 188.898 223.94 188.789 223.662 188.578 C 223.352 188.343 223.166 187.872 223.146 187.441 L 223.146 185.411 C 223.165 184.993 223.36 184.558 223.635 184.298 C 223.906 184.098 224.283 183.963 224.609 183.948 L 226.141 183.948 L 226.141 186.401 L 226.176 186.384 Z M 225.141 187.728 L 225.141 184.948 L 224.609 184.948 C 224.454 184.933 224.389 184.958 224.26 185.079 C 224.134 185.14 224.127 185.186 224.146 185.411 L 224.146 187.441 C 224.126 187.674 224.152 187.695 224.266 187.782 C 224.412 187.892 224.474 187.928 224.639 187.905 C 224.803 187.928 224.917 187.903 225.055 187.782 C 225.093 187.764 225.121 187.748 225.141 187.728 Z"
      style="fill: white;" />
    <path
      d="M 238.575 199.774 L 234.675 199.774 L 234.675 168.824 L 244.275 168.824 L 244.275 172.724 L 238.575 172.724 L 238.575 181.574 L 238.625 181.524 Q 239.775 180.374 241.275 179.574 Q 242.775 178.774 244.275 178.974 L 244.275 183.574 Q 243.475 183.324 242.7 183.474 Q 241.925 183.624 241.175 184.024 Q 240.425 184.424 239.75 185.049 Q 239.075 185.674 238.575 186.374 Z"
      transform="matrix(1, 0, -0.000073, 1, 0.013736, 0)" style="white-space: pre; fill: white;" />
    <path
      d="M 250.778 195.874 L 267.028 195.874 L 267.028 199.774 L 246.878 199.774 L 246.878 168.824 L 250.778 168.824 Z M 253.578 175.124 Q 253.578 172.924 254.578 171.449 Q 255.578 169.974 257.078 169.224 Q 258.578 168.474 260.303 168.474 Q 262.028 168.474 263.528 169.224 Q 265.028 169.974 266.028 171.449 Q 267.028 172.924 267.028 175.124 L 267.028 186.824 Q 267.028 189.024 266.028 190.499 Q 265.028 191.974 263.528 192.724 Q 262.028 193.474 260.303 193.474 Q 258.578 193.474 257.078 192.724 Q 255.578 191.974 254.578 190.499 Q 253.578 189.024 253.578 186.824 Z M 263.178 175.124 Q 263.178 173.724 262.278 173.024 Q 261.378 172.324 260.328 172.324 Q 259.278 172.324 258.378 173.024 Q 257.478 173.724 257.478 175.124 L 257.478 186.824 Q 257.478 188.224 258.378 188.924 Q 259.278 189.624 260.328 189.624 Q 261.378 189.624 262.278 188.924 Q 263.178 188.224 263.178 186.824 Z M 296.27 161.474 Q 298.57 160.274 301.17 159.949 Q 303.77 159.624 306.32 160.274 L 306.32 164.324 Q 304.67 163.724 302.87 163.724 Q 300.92 163.724 299.195 164.399 Q 297.47 165.074 296.07 166.274 Q 294.67 167.474 293.77 169.099 Q 292.87 170.724 292.57 172.674 L 288.52 199.774 L 282.72 199.774 L 280.92 181.724 L 279.12 199.774 L 273.32 199.774 L 268.72 168.824 L 272.72 168.824 L 276.22 194.774 L 279.02 168.824 L 282.82 168.824 L 285.62 194.774 Q 286.02 191.774 286.345 189.349 Q 286.67 186.924 286.97 184.649 Q 287.27 182.374 287.595 179.974 Q 287.92 177.574 288.37 174.574 Q 288.52 173.624 288.62 172.949 Q 288.72 172.274 288.97 171.374 Q 289.37 169.774 289.92 168.374 Q 290.47 166.974 291.345 165.749 Q 292.22 164.524 293.445 163.474 Q 294.67 162.424 296.37 161.524 Z"
      transform="matrix(1, 0, -0.000073, 1, 0.013736, 0)" style="white-space: pre; fill: white;" />
  </g>
  <path
    d="M 261.635 186.135 L 261.635 183.505 Q 261.043 183.32 260.468 183.431 Q 259.894 183.542 259.339 183.839 Q 258.783 184.135 258.283 184.598 Q 257.783 185.061 257.412 185.58 L 257.412 190.358 L 254.523 190.358 L 254.523 177.578 Q 254.523 176.541 254.912 175.634 Q 255.301 174.726 255.986 174.041 Q 256.672 173.355 257.579 172.967 Q 258.487 172.578 259.524 172.578 L 264.525 172.578 L 264.525 190.358 L 261.635 190.358 Z M 261.524 175.985 L 259.413 175.985 Q 258.672 175.985 258.135 176.43 Q 257.598 176.874 257.412 177.541 L 257.412 177.578 L 257.412 182.023 L 257.449 181.986 Q 258.301 181.134 259.413 180.542 Q 260.524 179.949 261.635 180.097 L 261.635 179.505 Z"
    transform="matrix(1.33414, 0, 0, 1.396036, -162.910629, -72.046318)" style="white-space: pre; fill: white;" />
</svg>
