<svg width="291" height="100" fill="none" xmlns="http://www.w3.org/2000/svg"><path d="M9.175 17.18h3.043c3.37 0 5.055-1.467 5.055-4.4 0-2.934-1.685-4.4-5.055-4.4H9.175v8.8zm0 19.1H0V.982h14.605c3.964 0 6.99 1.03 9.082 3.09 2.122 2.06 3.183 4.962 3.183 8.707 0 3.745-1.061 6.647-3.183 8.707-2.091 2.06-5.118 3.09-9.082 3.09h-5.43v11.702zM51.34 8.753H40.433v5.898H50.73v7.77H40.433v6.086H51.34v7.771H31.258V.983H51.34v7.77zm15.322 8.005h1.732c1.81 0 3.199-.375 4.166-1.124.968-.749 1.452-1.825 1.452-3.23 0-1.404-.484-2.48-1.452-3.23-.967-.749-2.356-1.123-4.166-1.123h-1.732v8.707zm20.176 19.52H75.416l-8.754-13.575v13.575h-9.175V.983h14.278c1.966 0 3.682.297 5.149.89 1.467.561 2.668 1.341 3.604 2.34a9.529 9.529 0 0 1 2.154 3.464c.5 1.31.749 2.715.749 4.213 0 2.684-.656 4.869-1.966 6.554-1.28 1.654-3.184 2.777-5.711 3.37L86.838 36.28zm16.804-27.525v27.525h-9.175V8.754H86.93V.983h24.248v7.77h-7.536zm20.324 5.851h13.248V.983h9.175v35.296h-9.175V21.721h-13.248v14.558h-9.175V.983h9.175v13.622zm48.732-4.587c-.999-.812-1.998-1.405-2.996-1.78-.999-.405-1.966-.608-2.903-.608-1.186 0-2.153.281-2.902.843-.749.562-1.123 1.295-1.123 2.2 0 .624.187 1.14.561 1.545.375.406.859.764 1.451 1.076.625.281 1.311.531 2.06.75.78.218 1.545.452 2.294.702 2.996.998 5.18 2.34 6.554 4.025 1.404 1.654 2.106 3.823 2.106 6.507 0 1.81-.312 3.449-.936 4.916a10.108 10.108 0 0 1-2.668 3.791c-1.155 1.03-2.591 1.826-4.307 2.388-1.685.593-3.605.89-5.758.89-4.463 0-8.598-1.327-12.405-3.98l3.932-7.396c1.373 1.217 2.731 2.122 4.073 2.715 1.342.593 2.668.89 3.979.89 1.498 0 2.606-.344 3.323-1.03.749-.687 1.124-1.467 1.124-2.341 0-.53-.094-.983-.281-1.358-.187-.405-.499-.764-.936-1.076-.437-.344-1.014-.656-1.732-.937a48.246 48.246 0 0 0-2.528-.936 66.613 66.613 0 0 1-3.511-1.217 11.959 11.959 0 0 1-3.043-1.826c-.874-.748-1.591-1.685-2.153-2.808-.531-1.155-.796-2.606-.796-4.354 0-1.747.281-3.323.843-4.728.593-1.435 1.404-2.652 2.434-3.651 1.061-1.03 2.341-1.826 3.839-2.387C161.822.28 163.523 0 165.395 0c1.748 0 3.573.25 5.477.749a23.379 23.379 0 0 1 5.477 2.107l-3.651 7.162zm19.59 4.587h13.247V.983h9.175v35.296h-9.175V21.721h-13.247v14.558h-9.175V.983h9.175v13.622zM230.814.983v35.296h-9.175V.983h9.175zm16.081 15.776h1.732c1.81 0 3.198-.375 4.166-1.124.967-.749 1.451-1.825 1.451-3.23 0-1.404-.484-2.48-1.451-3.23-.968-.749-2.356-1.123-4.166-1.123h-1.732v8.707zm20.175 19.52h-11.422l-8.753-13.575v13.575h-9.175V.983h14.277c1.966 0 3.683.297 5.149.89 1.467.561 2.669 1.341 3.605 2.34a9.532 9.532 0 0 1 2.153 3.464c.5 1.31.749 2.715.749 4.213 0 2.684-.655 4.869-1.966 6.554-1.279 1.654-3.183 2.777-5.711 3.37L267.07 36.28zm23.452-27.525h-10.907v5.898h10.299v7.77h-10.299v6.086h10.907v7.771H270.44V.983h20.082v7.77z" fill="#99BE12"/><path d="M28.425 63.57h31.99c0 3.289-.137 6.277-.411 8.963-.274 2.686-.822 5.18-1.645 7.483-1.151 3.235-2.714 6.113-4.687 8.635a28.184 28.184 0 0 1-6.99 6.25c-2.632 1.645-5.538 2.906-8.718 3.783-3.18.877-6.524 1.316-10.032 1.316-4.825 0-9.238-.795-13.24-2.385-3.948-1.59-7.347-3.81-10.198-6.661a29.934 29.934 0 0 1-4.491-5.902V49.298a28.521 28.521 0 0 1 4.409-5.712c2.905-2.851 6.387-5.072 10.444-6.662 4.057-1.59 8.58-2.385 13.569-2.385 6.47 0 12.143 1.398 17.023 4.194 4.88 2.797 8.744 7.128 11.595 12.994l-15.296 6.332c-1.425-3.399-3.29-5.839-5.592-7.319-2.248-1.48-4.824-2.22-7.73-2.22-2.412 0-4.605.466-6.58 1.398-1.973.877-3.672 2.165-5.098 3.865-1.37 1.645-2.467 3.646-3.29 6.003-.767 2.358-1.15 4.99-1.15 7.895 0 2.632.328 5.071.986 7.319.713 2.248 1.755 4.194 3.125 5.839 1.37 1.645 3.07 2.933 5.099 3.865 2.029.877 4.386 1.316 7.072 1.316 1.59 0 3.125-.165 4.606-.494 1.48-.383 2.796-.96 3.947-1.727a10.078 10.078 0 0 0 2.96-3.125c.768-1.26 1.289-2.796 1.563-4.605h-13.24v-12.5zm49.922.41h3.042c3.18 0 5.62-.658 7.32-1.973 1.7-1.316 2.549-3.208 2.549-5.675 0-2.467-.85-4.358-2.55-5.674-1.699-1.316-4.139-1.974-7.319-1.974h-3.042V63.98zm35.444 34.293H93.725L78.347 74.424v23.849H62.228V36.266h25.083c3.453 0 6.469.521 9.046 1.563 2.576.987 4.687 2.357 6.332 4.112a16.756 16.756 0 0 1 3.783 6.085c.877 2.303 1.315 4.77 1.315 7.402 0 4.715-1.151 8.552-3.453 11.513-2.248 2.906-5.593 4.88-10.033 5.92l19.49 25.412z" fill="#99BE12"/><path d="M144.894 75.247l-7.237-20.642-7.237 20.642h14.474zM149.17 87.5h-23.026l-3.701 10.773h-17.187l23.602-62.007h17.598l23.602 62.007h-17.187L149.17 87.5zm22.007-51.234l14.967 37.747 15.05-37.747h17.516l-26.151 62.007H179.73l-26.069-62.007h17.516z" fill="#99BE12"/><path d="M251.712 49.918H232.55V60.28h18.092v13.65H232.55v10.692h19.162v13.651h-35.28V36.266h35.28v13.652zM270.5 36.266v48.356h19.958v13.651h-36.076V36.266H270.5z" fill="#99BE12"/><path d="M288.173 83.5c-.319 0-.617-.059-.895-.176a2.273 2.273 0 0 1-1.254-1.212 2.325 2.325 0 0 1-.179-.9c0-.312.06-.606.179-.88.12-.286.286-.534.498-.742.212-.209.464-.372.756-.489a2.432 2.432 0 0 1 1.81 0c.278.117.524.28.736.489.212.208.378.456.497.743.119.273.179.567.179.88 0 .312-.06.612-.179.899a2.283 2.283 0 0 1-.497.723 2.334 2.334 0 0 1-.736.489 2.432 2.432 0 0 1-.915.176zm-4.993-13.746c-.424.613-.637 1.232-.637 1.858 0 .339.06.658.179.958.12.287.292.54.518.762.212.222.47.398.775.528.292.117.624.176.995.176.358 0 .69-.059.995-.176.291-.13.55-.3.775-.508.212-.222.378-.483.498-.782.119-.3.179-.62.179-.958 0-.665-.232-1.284-.697-1.858h3.064c.384.874.577 1.701.577 2.483 0 .73-.126 1.428-.378 2.092a5.483 5.483 0 0 1-1.075 1.74 5.557 5.557 0 0 1-1.69 1.193c-.663.3-1.399.45-2.208.45-.809 0-1.545-.144-2.208-.43a5.178 5.178 0 0 1-1.731-1.174 5.14 5.14 0 0 1-1.134-1.76 5.862 5.862 0 0 1-.417-2.208c0-.86.185-1.656.557-2.386h3.063zm1.75-5.193c.345 0 .663-.059.955-.176.279-.13.524-.293.736-.489.212-.208.378-.45.497-.723a2.306 2.306 0 0 0 0-1.78 2.025 2.025 0 0 0-.497-.723 2.325 2.325 0 0 0-.736-.488 2.266 2.266 0 0 0-.935-.196c-.318 0-.616.065-.895.196-.292.117-.544.28-.756.488a2.025 2.025 0 0 0-.497.724 2.183 2.183 0 0 0-.179.88c0 .312.06.612.179.899.119.274.285.515.497.723.212.196.458.359.736.49.279.116.577.175.895.175zm-.039 3.734c-.756 0-1.459-.15-2.109-.45a5.07 5.07 0 0 1-1.711-1.25 5.86 5.86 0 0 1-1.153-1.897 6.842 6.842 0 0 1-.418-2.424c0-.86.139-1.656.418-2.386a5.548 5.548 0 0 1 1.134-1.916 4.9 4.9 0 0 1 1.73-1.27c.663-.3 1.399-.45 2.208-.45.809 0 1.552.156 2.228.47.663.299 1.24.716 1.73 1.25.478.535.849 1.18 1.114 1.936.266.743.398 1.551.398 2.424 0 .86-.132 1.656-.398 2.386a5.597 5.597 0 0 1-1.133 1.896 5.362 5.362 0 0 1-1.751 1.232c-.689.3-1.452.45-2.287.45zm-5.013-13.325v-3.538h1.253c-.941-.965-1.412-2.047-1.412-3.246 0-1.486.636-2.62 1.909-3.402-1.286-.795-1.929-1.929-1.929-3.402 0-.469.073-.912.219-1.33.132-.416.351-.775.656-1.074.292-.3.676-.535 1.154-.704.477-.183 1.054-.274 1.73-.274h6.624v3.539h-5.032c-.517 0-.942.039-1.273.117-.332.065-.59.17-.776.313a.98.98 0 0 0-.378.47 1.712 1.712 0 0 0-.099.586c0 1.134.842 1.7 2.526 1.7h5.032v3.54h-5.032c-.517 0-.942.032-1.273.097-.345.065-.617.163-.816.293a.862.862 0 0 0-.398.47 1.818 1.818 0 0 0-.119.684c0 .221.033.43.099.625.067.196.199.372.398.528.186.144.451.261.796.352.331.078.769.117 1.313.117h5.032v3.54h-10.204z" fill="#0B8A2D"/></svg>