<?xml version="1.0" encoding="utf-8"?>
<svg viewBox="211.047 226.116 48.925 52" xmlns="http://www.w3.org/2000/svg">
  <linearGradient id="SVGID_1_" x1="11.001" x2="11.001" y1="-539.5" y2="-550.345"
    gradientTransform="matrix(1, 0, 0, -1, 204.971893, -301.884143)" gradientUnits="userSpaceOnUse">
    <stop offset="0" stop-color="#6dc7ff" />
    <stop offset="1" stop-color="#e6abff" />
  </linearGradient>
  <linearGradient id="SVGID_2_" x1="51" x2="51" y1="-550" y2="-559.502"
    gradientTransform="matrix(1, 0, 0, -1, 204.971893, -301.884143)" gradientUnits="userSpaceOnUse">
    <stop offset="0" stop-color="#6dc7ff" />
    <stop offset="1" stop-color="#e6abff" />
  </linearGradient>
  <linearGradient id="SVGID_3_" x1="32" x2="32" y1="4.277" y2="59.011" gradientUnits="userSpaceOnUse"
    gradientTransform="matrix(1, 0, 0, 1, 204.971893, 220.115857)">
    <stop offset="0" stop-color="#1a6dff" />
    <stop offset="1" stop-color="#c822ff" />
  </linearGradient>
  <linearGradient id="SVGID_4_" x1="35" x2="35" y1="4.277" y2="59.011" gradientUnits="userSpaceOnUse"
    gradientTransform="matrix(1, 0, 0, 1, 204.971893, 220.115857)">
    <stop offset="0" stop-color="#1a6dff" />
    <stop offset="1" stop-color="#c822ff" />
  </linearGradient>
  <linearGradient id="SVGID_5_" x1="32" x2="32" y1="4.277" y2="59.011" gradientUnits="userSpaceOnUse"
    gradientTransform="matrix(1, 0, 0, 1, 204.971893, 220.115857)">
    <stop offset="0" stop-color="#1a6dff" />
    <stop offset="1" stop-color="#c822ff" />
  </linearGradient>
  <path fill="url(#SVGID_1_)"
    d="M 216.672 238.616 L 216.972 239.916 C 217.272 240.916 218.072 241.716 219.072 242.016 L 220.372 242.316 C 221.072 242.516 221.072 243.516 220.372 243.716 L 219.072 244.116 C 218.072 244.416 217.272 245.216 216.972 246.216 L 216.672 247.516 C 216.472 248.216 215.472 248.216 215.272 247.516 L 214.972 246.216 C 214.672 245.216 213.872 244.416 212.872 244.116 L 211.572 243.816 C 210.872 243.616 210.872 242.616 211.572 242.416 L 212.872 242.116 C 213.872 241.816 214.672 241.016 214.972 240.016 L 215.272 238.716 C 215.472 237.916 216.472 237.916 216.672 238.616 Z" />
  <path fill="url(#SVGID_2_)"
    d="M 258.972 252.116 L 257.972 252.116 C 257.372 252.116 256.972 251.716 256.972 251.116 L 256.972 250.116 C 256.972 249.516 256.572 249.116 255.972 249.116 C 255.372 249.116 254.972 249.516 254.972 250.116 L 254.972 251.116 C 254.972 251.716 254.572 252.116 253.972 252.116 L 252.972 252.116 C 252.372 252.116 251.972 252.516 251.972 253.116 C 251.972 253.716 252.372 254.116 252.972 254.116 L 253.972 254.116 C 254.572 254.116 254.972 254.516 254.972 255.116 L 254.972 256.116 C 254.972 256.716 255.372 257.116 255.972 257.116 C 256.572 257.116 256.972 256.716 256.972 256.116 L 256.972 255.116 C 256.972 254.516 257.372 254.116 257.972 254.116 L 258.972 254.116 C 259.572 254.116 259.972 253.716 259.972 253.116 C 259.972 252.516 259.572 252.116 258.972 252.116 Z" />
  <path fill="url(#SVGID_3_)"
    d="M 240.972 255.116 C 240.972 252.916 239.172 251.116 236.972 251.116 C 234.772 251.116 232.972 252.916 232.972 255.116 C 232.972 257.316 234.772 259.116 236.972 259.116 C 239.172 259.116 240.972 257.316 240.972 255.116 Z M 236.972 257.116 C 235.872 257.116 234.972 256.216 234.972 255.116 C 234.972 254.016 235.872 253.116 236.972 253.116 C 238.072 253.116 238.972 254.016 238.972 255.116 C 238.972 256.216 238.072 257.116 236.972 257.116 Z" />
  <circle cx="239.972" cy="268.116" r="2" fill="url(#SVGID_4_)" />
  <path fill="url(#SVGID_5_)"
    d="M 246.972 231.116 L 245.972 231.116 C 245.972 228.316 243.772 226.116 240.972 226.116 L 232.972 226.116 C 230.172 226.116 227.972 228.316 227.972 231.116 L 226.972 231.116 C 224.772 231.116 222.972 232.916 222.972 235.116 L 222.972 236.116 C 222.972 238.016 224.272 239.516 225.972 239.916 L 225.972 267.116 C 225.972 273.216 230.872 278.116 236.972 278.116 C 243.072 278.116 247.972 273.216 247.972 267.116 L 247.972 240.016 C 249.672 239.616 250.972 238.016 250.972 236.216 L 250.972 235.116 C 250.972 232.916 249.172 231.116 246.972 231.116 Z M 232.972 228.116 L 240.972 228.116 C 242.672 228.116 243.972 229.416 243.972 231.116 L 229.972 231.116 C 229.972 229.416 231.272 228.116 232.972 228.116 Z M 227.972 262.216 C 229.072 262.416 229.972 263.416 229.972 264.616 C 229.972 265.816 229.072 266.816 227.972 267.016 L 227.972 262.216 Z M 236.972 276.116 C 232.672 276.116 229.072 273.116 228.172 269.016 C 230.272 268.716 231.972 266.816 231.972 264.616 C 231.972 262.316 230.172 260.416 227.972 260.216 L 227.972 240.116 L 231.972 240.116 L 231.972 243.116 L 233.972 243.116 L 233.972 240.116 L 235.972 240.116 L 235.972 245.116 L 237.972 245.116 L 237.972 240.116 L 239.972 240.116 L 239.972 243.116 L 241.972 243.116 L 241.972 240.116 L 245.972 240.116 L 245.972 267.116 C 245.972 272.116 241.972 276.116 236.972 276.116 Z M 248.972 236.116 C 248.972 237.216 248.072 238.116 246.972 238.116 L 226.972 238.116 C 225.872 238.116 224.972 237.216 224.972 236.116 L 224.972 235.116 C 224.972 234.016 225.872 233.116 226.972 233.116 L 246.972 233.116 C 248.072 233.116 248.972 234.016 248.972 235.116 L 248.972 236.116 Z" />
</svg>
