<?xml version="1.0" encoding="utf-8"?>
<svg viewBox="293.841 244.914 30.499 37.5968" xmlns="http://www.w3.org/2000/svg">
  <path d="M 321.716 270.461 C 318.932 267.794 314.486 267.89 311.819 270.675 C 311.324 271.191 311.031 271.808 310.724 272.416 L 297.337 272.706 C 295.561 272.742 294.134 274.231 294.173 276.009 C 294.211 277.782 295.7 279.209 297.473 279.17 L 310.861 278.882 C 311.191 279.474 311.517 280.078 312.033 280.572 C 314.817 283.239 319.263 283.142 321.93 280.358 C 322.641 279.615 323.15 278.757 323.467 277.849 L 323.952 276.485 L 322.507 276.519 L 318.02 276.613 L 316.874 275.516 L 317.971 274.371 L 323.904 274.243 L 323.36 272.901 C 323.004 272.007 322.458 271.172 321.716 270.461 Z M 320.333 271.905 C 320.457 272.024 320.502 272.187 320.613 272.314 L 317.1 272.389 L 314.046 275.577 L 317.234 278.63 L 320.745 278.552 C 320.642 278.686 320.604 278.85 320.485 278.975 C 318.567 280.977 315.419 281.046 313.416 279.127 C 312.911 278.644 312.532 278.08 312.273 277.475 L 312.008 276.854 L 297.433 277.168 C 296.751 277.186 296.186 276.646 296.175 275.963 C 296.157 275.281 296.697 274.717 297.383 274.702 L 311.954 274.39 L 312.195 273.756 C 312.428 273.14 312.78 272.563 313.263 272.058 C 315.182 270.054 318.33 269.987 320.333 271.905 Z" style="transform-origin: 309.806px 275.669px;"/>
  <path d="M 293.841 244.914 L 293.841 265.729 L 299.706 265.729 L 299.706 271.62 L 301.613 270.101 L 307.148 265.729 L 324.34 265.729 L 324.34 244.914 L 293.841 244.914 Z M 296.187 247.226 L 321.994 247.226 L 321.994 263.417 L 306.341 263.417 L 306.01 263.669 L 302.052 266.778 L 302.052 263.417 L 296.187 263.417 L 296.187 247.226 Z M 309.09 249.54 C 306.511 249.54 305.571 251.622 305.571 253.008 L 307.917 253.008 C 307.917 252.431 308.151 251.853 309.09 251.853 C 310.03 251.853 310.264 252.431 310.264 253.008 C 310.264 253.587 309.663 253.939 309.31 254.057 L 309.09 254.057 C 308.385 254.287 307.917 254.983 307.917 255.791 L 307.917 257.635 L 310.264 257.635 L 310.264 256.116 C 311.437 255.656 312.61 254.513 312.61 253.008 C 312.61 251.622 311.67 249.54 309.09 249.54 Z M 307.917 258.791 L 307.917 261.103 L 310.264 261.103 L 310.264 258.791 L 307.917 258.791 Z" style="" transform="matrix(0.9999999999999999, 0, 0, 0.9999999999999999, 0, 2.842170943040401e-14)"/>
</svg>