<svg width="44" height="50" viewBox="0 0 44 50" fill="none" xmlns="http://www.w3.org/2000/svg">
<path d="M22 6.58139C10.402 6.58139 1 16.0771 1 27.7907C1 39.5043 10.402 49 22 49C33.598 49 43 39.5043 43 27.7907C43 16.0771 33.598 6.58139 22 6.58139ZM22 6.58139V0.999996M22 0.999996H26.4211M22 0.999996H17.5789M37.5 12L39.5 10M39.5 10L40 10.5M39.5 10L39 9.5M22 10V11M22 45V46M4 28H5M39 28H40M33.5 16L34.5 15M9.5 15L10.5 16M33.5 39L34.5 40M9.5 40L10.5 39" stroke="#B3B0AA" stroke-width="2" stroke-linecap="round" stroke-linejoin="round"/>
<path d="M23.909 27.9091C23.909 29.5157 22.5908 29.8182 21.9999 29.8182C21.409 29.8182 20.0908 29.5157 20.0908 27.9091C20.0908 26.3024 21.409 15 21.9999 15C22.5908 15 23.909 26.3024 23.909 27.9091Z" fill="#B3B0AA"/>
</svg>
