<svg width="31" height="29" viewBox="0 0 31 29" fill="none" xmlns="http://www.w3.org/2000/svg">
<path d="M25 29H25.0004C25.122 29 25.2378 28.9527 25.3216 28.8697C25.5534 28.6394 31 23.1824 31 18.8849C30.9999 15.64 28.3085 13 25 13C21.6914 13 19 15.64 19 18.8849C19 23.2028 24.447 28.6407 24.6788 28.8701C24.763 28.9531 24.8789 29 25 29ZM25 13.842C27.8182 13.842 30.1111 16.1042 30.1111 18.8848C30.1111 22.2765 26.1663 26.7163 24.9996 27.9552C23.8316 26.72 19.8889 22.2956 19.8889 18.8848C19.8889 16.1042 22.1819 13.842 25 13.842Z" fill="#99BF10"/>
<path d="M28 19C28 17.3458 26.6541 16 25 16C23.3459 16 22 17.3459 22 19C22 20.6541 23.3459 22 25 22C26.6541 22 28 20.6542 28 19ZM22.9231 19C22.9231 17.8547 23.8547 16.9231 25 16.9231C26.1453 16.9231 27.0769 17.8547 27.0769 19C27.0769 20.1453 26.1453 21.0769 25 21.0769C23.8547 21.0769 22.9231 20.1453 22.9231 19Z" fill="#99BF10"/>
<path d="M25 13V4L17 1M17 1L8 6M17 1V21M8 6L1 3V23L8 27M8 6V27M8 27L17 21M17 21L20 22" stroke="#99BF10" stroke-linecap="round" stroke-linejoin="round"/>
</svg>
