<svg viewBox="239.52 107.653 57.761 57.761" xmlns="http://www.w3.org/2000/svg"><path d="M113.339 266.235c-4.842-4.842-12.728-4.84-17.576.007-1.731 1.731-3.824 4.813-5.588 8.238-1.855 3.592-4.637 6.81-8.148 8.77-10.05 4.882-13.568 10.189-12.615 15.543.657 3.695 1.802 5.55 3.477 7.315.092.103.16.22.258.318 4.845 4.845 12.73 4.841 17.577-.006 1.732-1.732 3.826-4.81 5.59-8.237a20.324 20.324 0 0 1 8.783-8.782c3.427-1.765 6.504-3.858 8.235-5.59 4.848-4.847 4.851-12.732.007-17.576zm-2.512 2.512c3.461 3.46 3.456 9.093-.005 12.554-1.442 1.442-4.323 3.385-7.352 4.942a23.913 23.913 0 0 0-10.314 10.314c-1.555 3.027-3.5 5.91-4.942 7.353-3.462 3.46-9.094 3.466-12.555.005l.01-.011c-.095-.095-.2-.241-.298-.348-3.132-3.48-3.058-8.845.293-12.196 1.442-1.443 4.326-3.381 7.355-4.94a23.973 23.973 0 0 0 10.314-10.314c1.556-3.026 3.498-5.913 4.94-7.354 3.46-3.462 9.093-3.467 12.554-.005zm-2.502 2.501a5.332 5.332 0 0 0-7.532.003 5.333 5.333 0 0 0-.004 7.534 5.333 5.333 0 0 0 7.533-.005 5.332 5.332 0 0 0 .003-7.532zm-2.512 2.513a1.775 1.775 0 1 1-2.511 2.51 1.775 1.775 0 0 1 2.51-2.51zm-20.095 20.095a5.333 5.333 0 0 0-7.533.004 5.333 5.333 0 0 0-.004 7.532 5.333 5.333 0 0 0 7.533-.003 5.333 5.333 0 0 0 .004-7.533zm-2.513 2.512a1.776 1.776 0 1 1-2.512 2.51 1.776 1.776 0 0 1 2.512-2.51z" style="transform-origin:268.4px 136.534px"/></svg>