<svg width="30" height="30" viewBox="0 0 30 30" fill="none" xmlns="http://www.w3.org/2000/svg">
<path d="M14.7008 23.75H14.7014C14.8654 23.75 15.0218 23.6798 15.135 23.5565C15.4478 23.2147 22.8007 15.1145 22.8007 8.73535C22.8007 3.91876 19.1673 0 14.7007 0C10.2342 0 6.60077 3.91876 6.60077 8.73535C6.60077 15.1447 13.9542 23.2166 14.2671 23.5572C14.3808 23.6804 14.5373 23.75 14.7008 23.75ZM14.7008 1.24989C18.5053 1.24989 21.6008 4.60774 21.6008 8.73526C21.6008 13.7697 16.2752 20.36 14.7002 22.1991C13.1234 20.3656 7.80081 13.7981 7.80081 8.73526C7.80081 4.60774 10.8963 1.24989 14.7008 1.24989Z"/>
<path d="M18.6002 9.06238C18.6002 6.82233 16.8506 4.99989 14.7003 4.99989C12.5499 4.99989 10.8003 6.82241 10.8003 9.06238C10.8003 11.3023 12.5499 13.1249 14.7003 13.1249C16.8506 13.1249 18.6002 11.3024 18.6002 9.06238ZM12.0003 9.06238C12.0003 7.51148 13.2114 6.24987 14.7003 6.24987C16.1891 6.24987 17.4003 7.51148 17.4003 9.06238C17.4003 10.6133 16.1891 11.8749 14.7003 11.8749C13.2114 11.8749 12.0003 10.6133 12.0003 9.06238Z" />
<path d="M29.9436 29.11L25.7378 19.735C25.6388 19.5153 25.4272 19.3749 25.194 19.3749H19.8C19.4684 19.3749 19.2 19.6545 19.2 20C19.2 20.3454 19.4684 20.625 19.8 20.625H24.8121L28.4572 28.75H24.5755C24.4123 27.2485 23.3954 26.2027 21.5426 25.6366C19.7924 25.1026 17.376 24.9823 14.8172 24.8554C13.8791 24.8084 12.9118 24.7607 11.9362 24.6906C10.7046 24.6027 9.12547 24.2756 8.59817 23.2172C8.14922 22.316 8.56458 21.1617 8.80927 20.6251H9.60005C9.93169 20.6251 10.2001 20.3455 10.2001 20C10.2001 19.6546 9.93169 19.375 9.60005 19.375H4.14441C3.89771 19.375 3.67625 19.5319 3.58601 19.7712L0.0416415 29.1462C-0.0310812 29.3385 -0.00753679 29.5558 0.10432 29.7266C0.215774 29.8976 0.401479 30 0.6002 30H29.4C29.6051 30 29.7961 29.8907 29.9062 29.7107C30.0164 29.5308 30.0303 29.3042 29.9436 29.11ZM4.55278 20.625H7.51078C7.22158 21.4502 6.98131 22.6798 7.52991 23.7866C8.15741 25.0537 9.61235 25.7776 11.8541 25.9381C12.8379 26.0083 13.814 26.0565 14.7602 26.1036C17.2452 26.2276 19.5924 26.3441 21.2049 26.836C22.531 27.241 23.1998 27.8333 23.3558 28.7501H1.48131L4.55278 20.625Z"/>
</svg>
