<svg xmlns="http://www.w3.org/2000/svg" viewBox="-345 257 100 100">
  <path
    d="M-316.3 309.6l.2-.2-.1-.2h-.2l-.4.4h.5zm2.6-8.3l.1.1v.1h-.1v.1h.7v-.1l-.1-.1-.1-.1-.1-.1-.1.1-.3-.3-.2-.1-.1.2v.2h.3zm7.7 11.4v-.3l.1-.6-.1-.1h-.1l-.1.1-.1.1v.1l-.1.2v.2l.1.2.3.1zm-.8 2.7v.2l.1.1.1-.1.1-.1.1-.1.1-.1v-.3l-.1-.3-.1-.1v-.5l.1-.6.1-.5V312.7l-.1-.1h-.2l.1.2v.1l-.2-.1h-.1l-.1.1.1.2v.1l.1.1v.1h-.2l-.1.1-.1.3-.1 1v.3l.4.3zm-21.8-7.6l-.1-.1.1.3.2.1h.2l.1-.2-.1-.1h-.4zm11.9 8.2l-.1-.1-.1-.1h-.4l-.1-.1-.1-.2-.2-.1H-318V315.1l-.1-.1-.1-.1.2-.1.2.2.2.3.4.2.2.2.2.1.2-.1v-.1h-.2l-.3-.3h-.2v-.3l.2.1h.1l.1-.1-.8-.5h-.1l-.4.2-.2.1.2.7.1.5-.1.2h-.1v.4l-.1.3-.1.1-.1.1h.1l.1.1.1.2v.1l-.1.2v.3l.2.8.1.2.2.3.3-.2.7.1.2-.2h-.2l-.1-.1-.1-.2-.1-.1H-317.8v-.1h.5l.1.1.1-.2v-.6l-.1-.2-.2-.2-.6-.2v-.1l.7.2.2-.1.1-.1.1-.3.1-.1.1-.1.1-.1.1-.1v-.2l-.2-.2zm2.1-6.7l.2-.2.5-.4.2-.2.2-.2.1-.1.1-.2-.1-.1-.1-.1.1-.1.4.3h.2v-.1h-.1v-.1h.4l.1-.1v-.2l-.2-.4-.1-.1-.2-.1-.1-.1.1-.1v-.2l.1-.1.3.2.7.2v-.4h-.2l-.1-.1h.1l-.1-.1-.1-.2-.1-.1-.1-.1-.1-.1-.2-.5-.1-.2.2-.1.2-.2.2-.3v-.4h.8v.1h-.3l-.3.1-.2.2-.1.4v.2l.1.2.2.5.1.2v.1l.1.1.3.1.1-.1-.1-.1-.1-.2V305.5h.1v.1l.1.2.1.2.1.1h.2l.2-.1v-.2h.2l.1.1h.1l.2-.1.1-.1.1-.3.1-.1v-.1l-.1-.2-.3-.1-.1-.1-.2-.1-.1-.1.1-.1.2.1.8.1.2-.1.1-.1.1-.2.2-.2H-309.3l-.1-.1h.2l.1-.1.1-.1-.1-.1v-.4l-.1-.2-.1-.1h-.1l-.3.2-1.1.3h-.3v-.1h.1l.4-.1.2-.2h.1l.1.1h.1l.1-.1.3-.4.4-.1.2-.1V302.2l.1-.1-.1-.2-.2-.6h.1l.3.2h.6l.3.2h.1l.2-.1.1-.2.1-.1.1-.1.2-.1v-.6h-.1v-.1l.1-.1h-.1l-.2.1-.1.1-.4.5-.2.1h-.3l-.3-.1-.2-.3H-308.7l.1-.1V300.3l.3-.1.1-.2.1-.1h.1l.1-.1v-.2l.1-.2.4-.3.2-.1v-.1h-.2l-.1-.1-.1-.1.2-.7.1-.1.2-.1v-.2l-.2-.3v-.3l-.1-.3-.2-.3-.2-.2h-.2l-.2.2-.4.6-1.5 1.2-.2.3-.1.1-.5.3-.2.1h-.3l-.1.1-.1.1h-.1l-.1-.1-.2.3-.7.6h.2v.2h-.1v.2l.1.1v.1H-312.2v.5l.1.1.2.1-.2.3-.1-.2-.2-.2-.2-.1h-.1l-.1.1-.4.1V301.6l-.1.1v.2l.1.3.1.1v.4l-.1-.2-.1-.3-.1-.3v-.2l-.1-.1-.2-.3-.1-.2h.3v-.1l-.5-.2-.1.1h-.1l-.3-.2-.1-.1-.2.2-.1.1v.4l.1.1.2.1-.2.1h-.6v.1l.1.1h.1v.2h-.1v.2l-.1.1V302.6h.1V302.9l.1.1.3.5h.1l.4-.3v.1l-.1.1-.1.1-.1.1h.2v.1h-.2l-.1.1v.1h.3l.8-.2-.5.3-.3.1h-.3v.1h-.2l-.1.1-.1.1-.1.1.4.3h.1l.1-.1.1.3.2.1h.5l.1.1.2.2.1.1h.5v.1h-.1l-.2.1v.1l.1.1-.3-.1-.3.1-.4.3v.1l.4.3h-.4l-.2.1-.1.2-.7.7V307.3l-.1-.1h-.2v.1l.1.1v.1l.1.1.5.7h.1l.1 1zm-3.5 11.7v-.2l-.1-.1-.3-.1.1-.1.1-.3h-.1l-.1-.1-.1.4-.2.1h-.2l-.2.2.1.1v.4l-.1.1-.1.1-.1.2v.2l.1.1.6.1h.1l.1-.1.1-.1v-.1h.1l.1-.1.1-.1.1-.1.1-.1h.2l-.1-.1-.3-.3zm2.5-10.4H-315.9l-.1-.1-.3.1-.1-.1.2-.1.1-.1v-.1l-.1-.1h-.2l-.4.3-.2.1.1.1h.1v.1h-.2l-.5-.2.1-.2v-.1l.1-.1v-.1l-.2.2-.3.4-.3.3-.2-.2.2-.1h.1v-.1l-.6.1-.2-.1-.1.3-.1.3-.1.3-.2.1v.1l.4.3.1.1.1.1h.2l.1-.1.1-.1.3.1.5.3h.3l-.2.1h-.1l.1.1v.2l.1.2.1.1h.5l.1.1.1-.1H-315.9l.2-.3v-.2l-.1-.1-.1-.1h-.2l-.5.1h-.6v-.1l.4-.3h.1v.1l.1.2.1.1h.1l.1-.1h.6l.2-.1.2-.3-.3.1h-.1l-.1-.1v-.2l-.1-.1h-.2v-.1l.1-.1v-.1h-.2v-.1h.4l.2.2h.1l.1.1.1.1.1.1h.1l.1-.1.1-.3.1-.1-.1-.2-.7-.4zm.1-3.7h.1l.1-.1.1-.1v-.2l.3.2.1-.1v-.3l-.2-.1-.2.1-.4.3v.1l.1.2zm-1.6 6.5l-.2-.1h-.1l-.1-.1-.1.1h-.2l-.1-.1h-.2l-.2.2-.1.2v.3l.1.2.7.4.2.1.7-.2v-.1l-.1-.1-.1-.1h-.2l-.1-.1v-.2h.2l.2-.2.1.1.1-.1-.2-.2H-317.1zm10.9 2.4l-.2.1.1.2.2.2.2.1.3-.1v-.2l-.2-.2-.4-.1zm28.4-30.4V285.1h.1l.2-.2.3-.4.1.1h.1l.2-.1v.4l.4-.5h.1v.4l.1-.1.1-.1.2-.4.1-.1.1-.2.2-.1h.4v-.2l-.1-.4h-.1l-.1.1-.2.3H-275.9l-.2.3-.3.1-.1.1v-.1h-.1l.2-.3.1-.1.1-.1v-.1h-.2l-.3.2h-.2l.1.2v.2l-.1.1h-.1l-.1.1-.1.1-.1.3-.1.1-.1.1h-.1l-.1.1v.2l-.1.3zm-1.3.3h.1l.1.1.1.2v.2l.1.1h.1l.3-.1v-.2h-.1l-.1-.1v-.6l.2-.3.1-.1-.1-.2-.1-.1h-.2v-.1h.1v-.1h-.1l-.1.1v.9h-.1l-.1.1h-.1l-.1-.1v.3zm1.9 1.1l.1.2v.4l.2-.1.4-.1.2-.2-.2-.2-.1-.1.1-.2v-.1l-.2.1h-.2l-.1-.2v-.2l.1-.1h.1l-.1-.1H-277.2V285.6h-.1l-.3.1.1.1.3.3.1.1v.2l-.1.1h-.1l-.1.1-.2.3.1.1.2-.1v-.3l.1-.1v.3zm4.5-17.2l.2.1.1-.2v-.4H-272.7l-.1.1-.1.1v.1l.1.1.1.1zm8-6.7l.2.2.3.1v-.1l-.1-.1v-.1l.1-.1v.1H-263.9l.2.1h.1V262.4l-.1-.3h.2l.1-.2v-.2l-.1-.2v-.1h-.1l-.1-.1-.1-.1v-.2l.1.1h.2l.1-.1-.2-.5-.1-.2-.1-.1h.2l.1.1.3.3.1-.2.1-.2-.1-.3v-.2l.1-.2v-.2h.1V259h-.4l-.2.1-.1.2-.1-.3h-.1l-.1.2-.1.2v.7l-.1.3V260.7l.1.5v.1h-.1l-.1-.1-.1-.2V260.7l-.3.1-.1.4.1 1.6-.1.1zm1.6-3.1l.1.1H-262.2l.1.1h.2l.1-.1-.1-.2-.1-.2-.1-.2.1-.1.4-.4v-.1l-.1-.1h-.2.2v-.1l-.1-.2.1-.1.2-.1.1-.1h-.1l-.2-.1.2-.1h.1v-.2l-.1-.1-.1-.1-.1-.1h-.1l-.1-.1-.1.1-.2.6-.1.1-.1.1-.1.1v-.1l.1-.1.1-.1.1-.1v-.4l-.1-.1h-.1l-.1.2v.2l-.1.2-.2.2-.1.1v.1l.1.1v.3l-.1.2-.1.1.1.2V259.5l-.2-.1v.4zm-41.7 26.8l.1-.2v-.1.1h-.1v.2zm20.7 4.1l.2.1.1-.1h.1v.4l.2.3.1.1.1.1.1.1v.1l.2.4v.1h.8l.4-.1.2-.3h-.2l-.5.2h-.3l.1-.2.2-.1.2-.1h.2v-.1l-.1-.2h-.2v-.1l.1-.1-.5-.7-.2-.1-.2-.1-.3-.3-.1-.1h-.1l-.4.1-.2.2v.1l-.1.3.1.1zm4.3 1l.2-.2v-.2l-.2-.1h-.4l-.4.1-.3.1v.1h.6v.1l-.1.1h-.2l-.1-.1.3.4.1.2-.1.1v.1l.4.4.2-.1.1-.2v-.2l-.1-.3.1-.1v-.2h-.1zm-3.5-2.4l.3.1v-.1l.2-.2.1-.2v-.4l-.1-.1.1-.1h.2l.1.1v-.1l-.1-.1v-.1l.1-.1.1-.1V288.2l.1.1v.1l-.1.2-.1.3v.4l.1.4.2.2.5-.1.2.1v-.2l.1-.1h.3l-.1-.2H-280.8l.1-.1h.2l.1-.1.1-.2h.1l.1.1.3.7.1.1.1.1.6.3h.1l.1-.1.2-.4.1-.1.3-.1.2-.1.1-.1v-.4l-.1-.1-.1-.1h-.1l-.3.2h-.2l.1.1.1.4H-278.8l-.1-.1-.1-.2.1-.1.3-.3.1-.2v-.1H-278.8l-.2.1-.1.1-.1.1h-.2v-.4l-.1.1-.1-.1-.1-.2-.1-.1-.1.1-.1.1h-.1l-.3-.3-.1.1-.1.2-.1.1h-.3l-.2-.1-.1-.1.2-.1.2-.2.2-.2.1-.3h.1l.5-.2v-.1h.1l-.5-.3-.2-.2h.1l.1-.1-.1-.1-.1-.2-.1-.1h-.1l-.1.1h-.1l-.3-.3-.2-.1h-.4l-.4.1-.4.3-.2.5.1.8-.1.1-.1.5.1.6-.4.6zm2-3.1l.2.2.2.1h.3l.3-.1v-.5l.1-.2v-.1l-.1-.1h-.1l-.4.1h-.2l-.1-.1v-.2h-.2l-.2.1-.2.2v.3l.4.3zm.2-3h.2l.1.1v.2l.1.4v.1l.1.1.1.1h.2l.1-.1.1.1-.1-.2v-.2h.2l.2.1.4.4-.1.1V284.7l.2-.3.1-.1h.2v-.1l-.1-.1h-.2l-.1-.1v-.1l-.2-.4-.1-.1-.7-.2v-.1H-280.1v-.2l.1-.1v-.1l-.2-.1-.1.1-.2.4-.1.1-.3-.1h-.2v.1zm-27.3 37.3l-.2-.2-.4-.3h-.3l-.3.2-.5.6.2.1.3.3.1.1.1.1.1.4.2.1h.3l.2-.1.2-.3.1-.6h-.2v-.1l.1-.3zm4.4 14.8l.2-.2.1-.2.1-.1v-.5l-.2-.1-.3.2-.4.4-.7.7-.3.1-.2.1-.3.3-.2.4-.1.3.1.2h.3l.3-.1h.2l-.3.2-.7.1-.3.2-.1.2-.1.1-.1.1-.1.2v.3l.1.7.1.4.3.2h.3l.2-.2.1-.2.1-.6.1-.1.1-.1.2-.3h.1l.2-.6.7-1.4.5-.7zm1.7-4.9l.2-.2.1-.3-.1.1h-.4l-.1.2v.2H-302.3zm33.8-51.2l-.2.1-.2.2-.1.3v.2h.1l.2-.2.1-.1v-.1h-.1v-.2h.1v-.1l.1-.1zm-30.2 65.7l.2-.1.1-.1v-.2l-.1-.2v-.2l.2-.1-.4-.2-.1-.1v-.2l.1-.1h.2v-.3l-.4-.4.1-.2-.2-.8-.1-.3-.2-.3-.2-.1-.6-.3H-300.4V341l-.3.1-.3.2-.2.3-.1.3v.5l.1.4.2.3.2.3V343.7l.1.4v.2l.4.3.4.2.4.1h.8zm.9-4.9l-.1-.6-.1-.2-.1-.2-.1-.2-.1-.1h-.1l-.1-.1v-.3H-298.8l-.3-.3-.3-.2-.3.2v.2l.1.3.1.2.1.1.3.2v.2l.1.4.1.3.6.5.1.3.1.1h.1l.1-.1v-.1l-.1-.1-.1-.1.3-.4zm27.7-26.7v-.1l.1-.1h.1l-.2-.3-.1-.2V312.3l-.1-.3v-.6l-.1-.3-.7-.8-.1-.2-.1-.1h-.1l-.1.1h-.1l-.1-.1-.1-.1-.1-.1v-.1h-1l-.5.4h-.2l-.2-.1-.4-.2H-274.5l-.1.1-.1.1v.2h-.1l-.2-.1h-.1l-.1.1-.1.1h-.1l-.1-.1h-.1l-.1.1-.4-.2h-.2l-.1.1-.1.1h-.1l-.1-.2h-.3l-.7-.3-.3.1-.1-.1h-.1l-.1.1h-.2l-.1-.2h-1.5l-.1.1-.5.4-.3.1h-.4l-1.1-.4-.6-.4H-284.3l-.2.1h-.4l-.1.2v.2l-.1.2-.1.2-.1.1h-.4l-.3-.1.2.4h-.1l-.1.1h-.1l-.1-.1.1-.1v-.1l.1-.2-.5.1-1.3 1-.3.1-.8-.1-.8.1h-.2l.3.3.1.2-.2.1h-.1l-.1.1-.1.1-.2.2H-290.5l-.1.1-.1.2-.2.1h-.2l-.3-.1.1-.1.1-.2.2-.4-.1-.1H-291.4v-.1h.5l.2.1h.1l-.1-.1.1-.2.2-.1h.4v-.2l.3-.5.3-.2.2-.3.2-.3v-.2h-.1l-.4.2-.1.1-.1.1h-.2l-.4-.1-.1-.1h-.2l-.4.2-.3.3-.4.2-.1.1-.1.2-.1.2-.1.1-.3.1-.1.1.1-.2.1-.2.1-.1.6-.6.1-.1.1-.1.1-.2.1-.2H-290.9l.6-.2H-290l.7-.6.3-.1.2.2-.1.2v.2l.1.1h.2l.1-.1.2-.3.2-.2 1.2-1.5.1-.1v-.3l-.1-.2h-.1l-.1.1-.2.4-.3.3-.3.1-.3-.1.1-.2-.2-.2-.3-.1-.5.4-.3-.1-.5-.4v.3h-.1l-.2-.1-.1-.2-.2-.1h-.2l-.3.2-.3-.1-.3-.2-.5-.7.2.1.2.2.3.4.2.1.7-.2.2.1.5.3h.2l.1-.1.1-.2.1-.1h.1l.3.1h.1v-.4l.2-.3-.2-.3-.1-.1-.1-.1h-.3l-.1-.1-.1-.1v-.2l.2.1h.2l.1.1-.1.1.1.1V305.6l.1-.1.1-.1.5-.4.3-.1.2-.1.1-.1v-.1l.1-.3.1-.2.2-.2.6-.3 1.9-1.6.4-.4.2-.3.1-.3.1-.2.5-.5.3-.2.8-.3.4-.2.3-.4.5-.7.4-.7.1-.6h.1l.1-.1V296.8l-.1-.1h-.1l-.1.1h-.1l-.2-.1-.1-.2v-.3l.1-.3.1-.1.2-.2.1-.1.1-.3.1-.1v-.2l.2-.3.1-.3-.3-.1-.6.1h-.3l-.4-.3h-.3l-.6.2h-.3l-.1-.1v-.4h-.1l-.1.1-.2.3.1.2.1.2.2.1.1.1-.1.3h-.2l-.5-.2-.5.2h-.2l-.2-.2.1-.1-.2-.1h-.3l-.5.1-.3.2-.6.5-.4.2-.7.1-.7-.1h-.2l-.2-.3h-.1l-.1.1-.1.3-.1.1-.1.1h-.1l-.2-.1h-.3l-.1.1-.1.2-.1.1h-.1l-.2-.1h-.1l-.1.1v.1l-.1.1-.1.1.1.1-.2-.1-.3-.2-.2-.1h-.1l-.2.1-.3.2-.3.4V297.2l-.2.3-.1.1-.1.1.2-.4.1-.3.1-.3.2-.2v-.4l-.4-.3-.4-.2-.4-.1-.2.1-.1.2-.1.3-.1.3-.2.2-.2.1-.1.1-.1.3h-.1l-.5.6h-.2l.1-.2.2-.3.2-.4.3-.3.1-.1v-.4l-.1-.1h-.1l-.2-.2-.1-.1-.3-.4-.2-.1v.4l-.1.1V296.2l-.1.1-.2.1.1-.1v-.4l-.1-.2v-.4l-.2-.2-.2-.1-1.1-.2-.1.2-.1.3v.3l-.1.3h.1l-.1.3-.1.1-.5.3-.1.1v.4l.9.8-.3-.2-.2-.1-.5.3.1.1h.1v.1h-.1v.1H-297.9l.1-.1.1.1v.1l.1.1.2.2h-.4l-.5-.3h-.1l-.1-.1h-.1V298.5l-.1.2-.1.2v.2l.1.2h-.2v.2l.1.2.2.3v.1l.1.1.3.4.1.1h.1l.2.2h.2l.1-.1H-297.2l.5.1-.1.1h-.2l-.1.1.2.2.1.1.1.2-.6-.5h-.5l-.1-.1-.3-.2-.2-.1h-.1l-.1.1-.1.1-.1.1-.2-.1h-.2l-.2.1-.3.2h-.2l-.4-.3-.2-.1h-.1v.3l.4.6.1.1h.1v.4h.2l.1.1.1.1-.1.1.1.1h.4v.1l-.1.1-.2.1-.1.1.2.1v.1h-.1l.1.1v.4h.1l-.2.3h-.2l-.2-.1-.2.2-.2-.4-.3-.1-.2.2.3.5v.5h.4l.2.1.1.2h.2l.4.5.3.1.1.1.3.1.1.1.1.2v.2l-.1.1h-.2v.1l.2.1.9.8v.2l.1.2.1.1v.1l-.2-.1-.2-.4-.4-.2-.3-.3-.1-.1h-.1l-.2-.1h-.2l-.2.1h-.1l-.2-.1-.2-.4-.2-.1v.2h-.1l-.1-.1h-.1v.2l.1.1.6.3.4.4.3.1.1.1.1.2-.6-.2-.3-.2-.2-.3-.1-.1-.4-.2h-.1l-.1.2-.1.5-.1.1.1.1h-.3l-.4-.2-.2-.3v-.4h-.3l-.1-.1-.1-.2-.1.1-.2.3-.1.2v.1h.1l-.1.2.1.2.3.3.1.2v.4l.1.3-.2-.1h-.2l.1.2v.1l.1.1h-.1l-.1-.1-.1-.1-.1-.2-.1-.2-.1-.3v-.5l-.2-.1-.2-.1h-.2l-.2.1-.1.1-.1.1-.1.2v.4l.1.3V309.7l.7.2.1.1.1.1.1.1.1.1h.1l-.1.2-.1.1h-.1l-.3-.3h-.2l-.3.2v.2l-.2.2v.4l.1.1h.1l.1.1.2.3.1.3.1.2.3.1-.1.2.3.3.2-.2.4-.1.4.1.3.2v.1h-.2l-.4-.1-.6.1v.4h-.1l-.3-.2-.1-.1-.1-.2-.1.1-.1-.1-.5-.5-.1-.1h-.2l-.2.1v.4h-.1v.6l-.1.3V314l.1.3v.2h.1l.3.1.1.1-.1.1v.4l.1.1v.1l.1.6.2.1.4-.1.2-.1.6-.8.1-.1v.1l.1.2v.1l-.1.1-.2.1h.2l.2.1h.2l.2-.2.4-.6.2-.2h.1l-.1.4-.4.4-1 .5h-.2v-.2l-.1-.1-.1.1-.1.1-.2.1-.1.1-.2.5v.1l.1.2h.2l.4-.1h.2l.3.2h.2l.2-.1.3-.2h.1l.1-.1.1-.2.1-.1.2.1v.1l-.2.1-.2.2-.1.2.1.1h.1l.1.1.1.2.1.1.4.1v.1l-.3.1-.3-.2-.3-.3-.3-.2-.3.1-.4.2-.2.3.2.3-.1.2-.3.4-.1.3.1.2.7.2.1.1.2.3.1.1h.1l.2-.1.7-.1.2.1v.1h-.4l-.1.1v.1h-.8l-.2-.1-.4-.3-.2-.1-.2.1-.1.1h-.4l-.1.1-.1.2-.4.5-.1.3.1.1h.1l.1.1h.2l.2-.1h.1l.2.1v.4l.1.1.2.1.2.1.2.1.2-.1.1.1h.1l.1-.1h.1v.1l-.4.2-.5.1h-.3l-.1-.1-.1-.1-.1-.1-.2-.3-.1-.1h-.2l-.3.1-.2.2-.2.2-.1.3-.1.4-.1.3-.2.2.2.2h.1v.1h-.3l-.3.1.4.1.8-.2.4.1-.3.4-.1.2.3.1h.2l.1-.3.1-.1h.2l.1.1-.3.3-.4.2-.9.1-.1.1v.2l.2.2.6.3h-.2l-.2-.1-.2.1-.1.2-.1-.1H-304.9v.1h.2l.1.1v.4l-.1-.1-.5-.2-.1-.1-.1-.1-.1-.1h-.1l-.1.1-.3.2-.1.1-1.3.1-.1.1-.2.3h-.2v.5l.1.1.2.1h.2l.2-.1.2-.2h.2l.6.2h.7l.2.1h.2l.3-.1.9-.5.4.1.4.3h.2l.8-.1-.2.1-.3.1h-.7l-.5-.3h-.2l-.9.6v.2l.1.1.2.2-.1.1-.2-.2-.3-.1-.3-.1h-.5l-.1.1v.2l.1.1 1.3 1.1.5.1.3-.4h.1V328.9l-.1.3.1.1.1.1.2.1h.2l.1.2.1.1h.1l.6-.5.6-.7.3-.5.1-.1.1-.1h.1l.1-.1.1-.3.1-.1h.2l.1-.1.2-.3.1-.2.1-.1.2-.1.1-.1H-299.6l.1-.1.1-.1.1-.2V325.8h.2l.1-.1.1-.1v-.1l.1-.1.5-.5-.1.3-.2.3-.6.6-.1.1-.1.2v.1l.7.3 1.4-.3-.1.1-.7.2-.3.2-.2.1-.4-.1h-.2l-.3.2H-299.8l-.2.2h-.1v.1l.2.1-.1.2-.4.3-.1.1-.2.4V328.9l-.1.1v.2h.1l.1.2h.2l.2-.2h.1l.1-.1H-299.7l.3-.2-.1.1-.1.1-.2.1-.4.3-.2.1h-.2l-.2-.1-.2-.2v.2l-.3.7.1.1.2-.3.1-.1.1-.1.1.6.1.1.2-.2.9.2h.4l.1-.1.2-.3.4-.3.1-.2.1-.3.1-.2.2-.1-.2.3-.3.6-.5.7-.2.2-.3.1-.7-.2-.9.1-.3.1-.2.3v.1l-.1.1-.1.1-.1.1-.1.1-.2.5h.2l.4-.1h.2v.1l-.4.2h-.2l-.2-.1-.2.2-.1.2-.1.6-.1.3v.2l.1.1h.1l.1-.1.1-.1.1-.1.4-.1.1.1.1.1v.1l-.1.1h-.2l-.2.1-.1.2.1.2-.2.2-.1.3-.1.3-.1.3.2-.2.2-.3.2-.2.3-.1-.1.2-.1.1-.3.4v.2l.1.2h.1l.1.1v.2h-.1l-.1-.1h-.4V336.3l-.6.9-.3.6v.7h.1l.1-.3v-.3l.4-.4.1-.3.1-.1.1-.1.1-.1h.1v.1l-.1.1v.1l-.1.2-.9 1.5v.2l.1.2.1.1h.1l.2-.2.2-.1.3-.3.2-.1-.1.2-.2.1-.1.2-.1.2-.1.1-.4.5v.5l.1.2.1.2.1.1.2.1-.1.2h.2l.3-.3.8-.9-.2.5-.3.4-.3.3-.2.1-.1.1-.1.2-.1.3-.1.2-.1.2-.5.4.1.2v.3l-.2.5-.2.4V344.5l.1.1v.1l-.1.4V346l-.1.2-.3.4-.2.2v.6l.1.6.1.2.2.1H-303.6l.2-.1h.2l.2.1H-302.7l.2-.1.2-.1.1-.1.3-.4.1-.2-.1-.1v-.1l-.1-.3-.1-.1-.1-.1h-.2v-.1l.2-.1.1-.2.2-.5v-.5l.1-.1.2-.4-.1-.3.1-.1.1-.1.1-.2-.1-.2h-.1l-.1-.1v-.5l.2-.1v-.5l.1-.2.1-.2.1-.1.4-.4.1-.1.3-.1.1-.1.1-.2-.1-.4-.2-.4-.5-.5v-.1l-.1-.1v-.1h.1v-.1l-.1-.1v-.4l-.1-.3-.1-.1.1-.8V337.6h.1V337.9l.2.1h.2l.2-.1.1-.2.1-.2V337.2h.4l.7-1.1 1-.7.1-.1.2-.5.1-.2.1-.1.1-.1h.3l.1-.1.3-.4.1-.1-.2.4-.3.2-.3.1-.3.2-.1.2-.3.7-.1.1-.4.3-.5.2-.9 1.6-.2.2.1.4v.2l-.1.2v.6l.1.1h.1l.1.1.1.4.1.1.3.1.4.2h.2l-.1-.3-.1-.2-.2-.4.3-.4V338.8l.1-.2.1-.2.1-.1v.3l.1.2.6.5.2.1.1-.1-.1-.3-.3-.8-.1-.3.1-.1.1.1v.2l.3.5v.3l.1.4.1.4.1.2.3.1h.1l.1-.1.1-.2v-.4l.1-.1.1-.1.1-.1v-.4l-.1-.1-.1-.1-.1-.1v-.1h.1l.1.1h.1l.1-.1v-1.1h.1v-.2l-.1-.5-.1-.5-.1-.3.1-.1h.1l.1.2v.7l.1.1h.2l.1-.2.5-1 .1-.2.1-.1V335.3l-.6 1-.3.9v1l.1.2.2.1h.4l.1-.1-.1-.3-.4-.6-.1-.2V337h.1v.1l.1.5.1.2.1.2.2.2.3.1.4.6.4.2 1.3.3-.2.1-1.4-.2-.2-.1h-.2l-.5-.3H-295.8l-.3.1-.2.2-.1.3-.1.4.1 1.1v.2l.1.1.1.2v.5l-.1.3-.4.4.2.2.3.3.5.3v.1l-.1.1.1.1h.3l.5.2.3.2.2.3v.3l-.2.3.3.1.2.3.1.4-.1.4-.2.3-.6.3-.3.3-.1.2-.1.4-.1.1-.1.1-.2.1-.3.4v.7l-.2.5V350h-.1l-.6.8-.4.2-.2.2-.1.3v.3l-.1.2-.2.4v.7l.1.3v.2l.3.6V354.5l-.1.2h-.2l-.1-.1-.1-.2V353.5l-.1-.1-.1-.2v-.1l-.1-.2-.1-.1v.2H-298.8l-.1.1-.1.3v1.1l.2.5.2.5.8 1 .2.1.1.1.1.2V357.2l.1.1H-297V357.6l.1.1-.1.1v.2l.1.2.1.1h.2l.4.2h.2l-.1-.2v-.6l-.2-.2-.1-.3-.1-.4-.1-.2-.1-.1-.1-.2v-.6l.1-.1.1-.2.2-.2.2-.2.2-.1h.3l.2.1.2.4.2.1.4.1 1 .6.3.3.5.8.1.1h.4l.2.2.2.1H-291.7l.1-.1v-.1l.1-.1v-.6l.1-.2-.1-.2v-.2l.1-.2v-.2l-.1-.1-.1-.1h-.2l-.1-.1-.1-.2-.1-.3v-.2l.1-.2.1-.2.1-.1h.1l.1.1v.2l.1.2.1.1.1.1.6.3h.1l.1-.1.2-.3.1-.1-.1.6.3.5.4.3.3-.1-.1-.2v-.3l.1-.2.1-.1v.1l.1.1v.8h.3l.4-.1.7-.5.4-.2.1-.1-.3-.3.1-.1h.1V354.7l.1-.1.1-.2v.1-.1l-.1.2v.1l.1.1h.1l.1-.1v-.1l.6.1.2-.3h.2l.8.1.1-.1.1-.2v-.8l-.1-.2.1-.4.2.2.1.1.1-.1v-.1h.2l.1.1h.1l2.7.2.7-.2v-.3l.1-.2v-.6h.1l.3.2h.2l.1-.3v-.1l.3-.1h.1l.1-.1v-.1l.4-.6.1-.1h.1l.4-.2.2-.2.2-.2.3-.5.2-.1h.1l.1-.1v-.6l.1-.1.5-.6.8-.7h.4l.1.1h.2l.2-.1.1-.1V347l.1-.1.1-.1.3-.1.1-.1.1-.1.2-.1h.1l.2-.1.1-.1.1-.1v-.4l-.2-.3-.1-.2-.1-.2-.1-.3-.1-.4V344l-.1-.1V343.6l-.1-.1V343.2h.6l.1-.1.5-.7V342.1l.1-.1.1-.1.1-.1.2-.2v-.6l.4-.1-.5-1-.2-.2-.2-.1h-.1V339.3h-.1l-1.4-.3-.4-.2-.5-.5-.3-.1-.3-.2-.1-.1-.1.1-.1.1v.1l-.1-.1H-276.9v-.1l.1-.3-.2-.1-.2-.3-.2-.1-1.4-.1-.2.1-.3.3-.2.1v.4h-.2l-.1.2-.1.2-.2.2-.6.3-.5.1h-.1l-.1-.1-.2-.2h-.1l-1.6-.1-.1-.1-.1-.1h-.1l-.1.1h-.4l-1.5-.4h-.2l-.5.1h-.1l-.1-.1v-.1l-.1-.1h-.4v-.1l-.3-.5h-.1l-.1-.1-.5-.4v-.1h.2l.1.1.2.2.3.3.3.2.3.1h.8l1.4.4h.3l.3-.1.3-.2.3-.2.2-.1h.6l.1-.1.1-.2.1-.5.1-.2.2-.1.1-.1.5-.5.5-.3.1-.1.1-.1.2-.1h.4l.5.3h.2l.2-.1.5-.4.4-.1.2-.1.2-.3.5-.4v-.1l-.3-.3h-.1l-.3-.3-.2-.1-.8-.1-.1-.1H-279.3V332.7h-.2l.1-.2.1-.2.1-.3v-.3l-.1-.2h-.3l-.2-.2-.1-.1h-.2l-.2.1-.1.1-.1.1-1.7.9-.3.1-.4.2H-283.5l-.1-.1-.1-.1.4.1.4-.2.9-.9.3-.2.3-.2 2.5-.4h.1l.1.1h.2l.2-.4.1-.1.3-.2.2-.1.1-.3.8-.6.1-.2.1-.3.2-.2v-.2l-.1-.2v-.1l.1-.2.1-.2.1-.2.1-.7.1-.3.2-.2.1-.1.5-.3.1-.2.2-.4.2-.3.3-.2.1-.2.1-.3v-.1l.2-.2v-.4l-.1-.1v-.1l.1-.6.3-.6.8-1.2.1-.3v-.1l-.2-.1v-.6l.2-.8.6-1.5.2-.3.9-.8v-.2l.2-.3.3-.5.2-.2.1-.1.2-1.7zm-26.2 7.5l-.1.2-.1.1-.2.3-.1.1-.2.1-.1.2-.2.1-.1.1-.1.1-.1-.1v-.2l.1-.1.3-.2.3-.4.3-.4.3.1zm4.3-5.8l-.5.5-.2.4-.9 1.3-.3.2-.4.7-.6.6-.1-.1v-.1l.2-.1 1.4-1.7.3-.6.1-.3.1-.1h.1l.2-.1.6-.9V315zm30.7-53.8l-.2-.1v.1h-.2V260.9h-1.1v.1l.3.6.2.3.2.1v-.5h.2l.3.1.2.1.2-.2.1-.2-.2-.1zm-1.4 3.9l-.1.1h-.3l-.1.1-.1.1h-.2l-.1.1v.4l.2.1.3-.1.2-.3.1-.2.1-.1v-.2zm-3.7 5.4v.2l-.1.2v.1l.1-.1.1-.2v-.2.5l.1-.1.1-.3.1-.2V270.1h-.1l-.1.1v-.1l.1-.2v-.2l-.1.1h-.2v.1l.1.1v.1l-.1.2v.2zm2.5-1.6l-.1-.2V268.4h-.1v.1h-.1l-.2-.1h-.2v.2l.1.2v.6l.1.1.2.2h.1l.1-.4.1-.1.1-.2V268.7l-.1.2zm.1-5l-.2.1-.1.2-.1.3V264.2l-.1.1V264.6l-.1.1v.2h-.1v-.3l-.1-.1-.3.2v-.1l.1-.1-.2.1h-.1l.1-.1.1-.1.1-.1.1-.1.2.1.1-.1-.1-.1V263.8l-.1-.1-.1-.1-.1-.1.1-.2-.1-.2-.2-.1h-.1v.1l-.2.3-.1.1v-.3h-.1l-.1.1-.1.1.1.2.4.3-.5.1-.2.2v.3l-.1.1H-266.3v-.1l.2-.1.2-.6.2-.1V263.4l.1-.3-.1-.1-.1.1-.1.1h-.2l.2-.6h-.1.1v-.1h-.2l.1-.2.1-.1.1-.2-.1-.4h.1v-.6l-.1-.3-.2.4v.2l.1.2v.2l-.2-.2-.2-.1h-.2l-.2.1V261.8l-.1.1.1.1-.3.2h-.1v.1l-.1.3-.1.1h.1l.1.1.1.1.1.1H-266.7l.1.1-.3.2-.3-.1-.3-.3-.1-.4-.1-.2h-.1l-.1.1-.1.2v.4h-.2l-.1.1-.1.2V263.6h.3l.1-.1.1-.2.1.2h.4l-.1.1-.1.2v.1l.1.1.1-.1.1-.2.1-.3.1.6v.5l.1.1h.4v.1l-.1.1v.4l.1.1h.1l.1-.1.2-.2.1.4.2.1.3.1.2.1h-.4l-.2.1.1.2h-.2l-.1-.1-.2.5.2.2-.1.2-.1.2-.1-.4-.2-.2-.2-.1-.2.1V266.7h-.2v.4l-.1.1v-.5l-.1-.1-.4.1v.1h.1v.1l-.3-.1.1.2h-.1l-.1-.1-.1-.1-.1-.1H-268.7l-.2.1-.1.1-.1.2v.1l.1.3.1.4.1.1H-268.5V268.3H-268.2l.3-.2h.1l.1.2v.2h.1l.1-.2V268l.2.4.1.1-.1.1-.3.1-.1.1v.2l.1.2.2.2.3.2h.1l.1-.1v-.4l.1-.1v.2h.1l.1-.2v-.3h.1l.1.1.2.2.1-.2-.1-.3-.1-.2-.1-.1-.2-.1v-.1l.3.1.2.2.1.3.1.4.2-.5.1-.2h.2v.1l-.1.1-.1.1-.1.2-.1.5v.2h.1v-.1l.1-.1h.1l-.1.4v.4h.1v.6l-.1.3-.1.3-.1.8-.1.3-.1.3.1.3h-.2v.1l.1.1.2.2v.1h-.2l-.1.1-.1.1.1.3-.2.2.1.2.1.1.3-.1.1.1v.1l-.1.2v.1h.1l.1-.2.1.3v.1l.1-.1v-.2l-.1-.1.1-.2v-.4l-.1-.2v.1l.1-.2.1-.3v-.8l.3.2h.1l.1-.2-.2-.5v-.2l.1.1h.2l.1-.1v-.2h-.1l-.2-.2-.1-.2.1-.2-.2-.1h-.1v-.1h.2v-.2l-.1-.1h.2l.1-.1.1-.1.1.1v-.1h-.1v-.1h.2V269l-.3-.2.1-.3-.1-.1-.2.1-.1.2v-.3l.3-.6h-.1l-.1.1-.2.2.1-.2v-.1l.1-.1h-.3v-.1l.1-.1h.2v-.1l-.1-.1v-.2l.1-.1h.1l.1.1.1.2h.1l.2-.1.3-.3H-264.4l-.1.1V266.7l.1-.1.4-.4-.2-.2-.4-.1-.2-.2.1-.1.7-.1.1-.1v-.5l-.1-.2h-.1l-.1.1v.1l-.1.2-.1.1h-.1v-.2l.6-.7.1-.3v-.1zm-46.7 62.6l.1-.1.1-.3.1-.2.1-.2H-310.4l-.1.1-.3.2-.2.1-.3.2-.1.1-.4.6-.2.2h-.2v.2l.1.2.1.1V327.4h.1l.2.1h.1l.4-.4.3-.4h.2l.2-.2zm7.1 6.5l.2.4.1.1.1-.5.1-.2.1-.2v-.2.1-.1l-.1.1-.1.4-.4.1zm.7-1.4v-.2l-.1.1h-.2l-.1.1-.1.3.1.2.2.1.2-.1-.1-.2v-.1l.1-.2zm-4.7 3.1v-.2h-.1l-.1.1h-.1v.2l-.1.1-.1-.1-.1.1-.1.1-.2.2-.1.2v.2l-.1.2-.1.1.2.1h.2l.2-.1.2-.1v-.3l.1-.3.3-.5zm3.5-1.1l-.1.1-.1.3h.2l.3-.1.2-.2-.1-.2-.1-.1-.3.2zm-2.9-7l-.4-.2-.1-.1h-.3l-.3.1-.3.2v.3l-.1.1h-.1l-.1-.1-.1-.1-.1.1-.1.1h-.3l.1.2.2.2.1.1-.4.3.1.1.1.1.2.1.8.1.2.1.1.1.1.1.1.3.1.1h.1l.1-.1H-306.8l.6-.3.1.1v.4l-.1.1-.5.2h-.4l-.1.1v.2l-.1.3-.1.1h-.2l-.1.1v.4l.2.2h.2l.4-.1.5-.3h.2l.1.1-.2.2-.4.3-.6.1-.1.1-.1.1-.4-.1-.2.1h.1v.1l-.2.1-.1-.1-.1-.2-.1-.2h-.4l-.2.1-.1.2.1.3.1.2.2.2.2.1.2.1h.2l.1-.1v-.1l.1-.1h.9l.2-.1h.2l.1.1h.1l.1-.1.1-.2.7-.4.3-.1h.1l.1-.1v-.2l.2-.1h.1l.1.1v.1l-.1.1-.1.1h-.1l.3.2.3-.1.8-.5.1-.2.1-.2-.1-.1h-.3l-.2.1-.1.1v-.1l.3-.2.1-.2v-.2H-303.4l.1.1v.2l.1.1h.3l.1-.1-.1-.2-.1-.2-.1-.1H-302.8l.1.1v-.3l-.1-.1h-.2v-.2l-.1-.2-.1-.1-.1-.1h-.4l-.1-.1-.2-.3H-304.3l-.1.1-.1-.1-.1-.1-.1-.1h-1V327.6l-.3-.8-.2-.3h-.3v-.1l-.3.2zm-5.2-11.3l.8.3.1-.1v-.2l-.1-.3v-.2l.1-.1h.1l.1-.1.1-.2.1.1V314.8l.1-.1.2-.2h.1V314.8l.1.1h.1v.1h-.1l.2.1h.1v.1l-.1.1h.1l.2-.1H-309.4l.1.1.5.5.1.2-.2-.1-.2-.2-.2-.2-.2-.1h-.2l-.2.1-.4.3v.6l.4.5h.5l-.1.1-.1.1-.1.1h-.1l.1.3.2.3.1-.1.1-.1h.4v.1l-.3.3-.1.1v.1l1.2-.3.1-.1-.1-.1v-.1h.2l.1.1.1.1.1-.1.1.1v.8l.1.1.1-.1.1-.2.1-.2.1-.1-.1-.1.1-.1.1-.1.1-.2-.1-.2V317.1l.1.1.1.1.2.3V317.9h.7l.2-.1.2-.1v.1l-.8.4-.1.1-.1.1-.2.3-.1.1v.2h-.1v.2l-.2.3v.3l.1.2.1.1.5-.1.2-.1.1-.1.5-.7.1-.1.1-.1.2-.1.2-.1.1-.2v-.3l.1-.1h.3l.1-.1.3-.3.2-.2.1-.1v-.5l.1-.4h-.6l-.1-.2h-.3l-.2.1-.2.2h-.4v.1l-.1.1-.1.1h-.1l-.1-.1-.1-.1-.1-.1-.1-.1H-306.4l-.1-.1-.2-.2h-.2l-.2.1h-.2v-.1l.2-.1.1-.1v-.1l-.2-.1-.7.1.1-.1.3-.2.1-.1-.1-.1-.1-.1-.1-.2v-.3l.1-.1.1-.1v-.2l-.1-.2h-.1l-.1.1-.1.1-.1.1.1-.1.2-.2V313.9l.1-.4v-.4l-.1-.5-.1-1.1v-.1l-.1-.2-.2-.2-.4-.3v-.1l-.2-.4-.1-.1-.2-.2-.1-.1-.1-.2v.1h-.1l-.1-.1-.1.1-.1.2-.1.2-.1.1-.3.2h-.1v.4l.1.1V311.2l.1.1H-309.7l-.1.3-.1.2v.2l.1.3.3.4.1.2v.6l-.7-.9-.1-.1-.1.3-.2.2h-.1l.2-.5h-.1l-.1.1h-.1l-.1-.1-.1-.1-.1-.1-.4-.2h-.1l-.1-.1V311.7l-.2-.1-.1-.1-.1-.1h-.2v.1l.1.1v.2l-.1.2-.1.2.2.1.3.2.2.3.1.3-.3-.1h-.2l-.1.1v.1h-.1v.2l.1.1v.1l.1.2V314.1h-.1l-.2-.1-.1-.1-.1-.1-.5-.7-.1-.1h-.1l-.1.2-.1.2v.2l.1.2.1.1h-.5l.1.4.4.3.1.4.1.2.2.2.8-.1zm5.5 25.6v-.4l-.1-.1-.1-.1v-.5l-.1-.1-.1-.1-.1-.2-.1-.1v-.5l-.1-.8V337.2l-.1-.1h-.1l-.1.1-.1.1-.1.1h-.1l-.1.1-.2.3-.3.2-.3.3-.2.3.1.3v.1h-.1l-.1-.1-.1-.3v-.1l.1-.4.1-.1-.1-.1-.1.1-.1.1-.5.2-.3.2-.1.1v.5l-.1.1-.1.1.3.2-.4.6-.1.2v.1l-.1.3v.2l.1.1h.2l.1-.1.3-.4.3-.2.1-.2.2-.5.2-.2h.4l.2.1-.4.4-.2.3v.3h.1l.3.2.1.1.2.5-.5.3-.2.2v.3l.1.3.2.1.2-.1.2-.2.1-.1v-.1l.1-.3.1-.1.4.1.2-.1.2-.1.2-.2.2-.2.1.1v-.1l.1-.1.1-.1.1-.1v-.2.3zm-6.3-12.9l-.4.2h-.2l-.3.2-.2.1-.6.1-.2.1.1.3v.2l.1.2.5.2h.2v-.3l.2-.3.2-.1h.2l.2-.1v-.3l.5-.1.1-.2-.1-.3-.3.1zm4.7 1.2h.4l-.1-.2-.3-.2-.1-.1h-.1l-.1.1-.1.1-.1.2.2.2.3-.1zm-2.7-9.3h-.3l-.3.2-.1.1.2.1h.6l.2-.1-.1-.1-.2-.2z" />
  <circle cx="-288" cy="326" r="5" fill="#F85707">
    <animate attributeName="r" values="2;6;5;7;4;2;2;2;2" dur="3s" repeatCount="indefinite" />
  </circle>
</svg>
