<svg xmlns="http://www.w3.org/2000/svg" viewBox="0 0 256 256">
  <path
    d="M75.9 3C35.705 3 3 35.725 3 75.93v104.16C3 220.29 35.725 253 75.93 253h104.16c40.2 0 72.91-32.725 72.91-72.93V75.9C253 35.705 220.275 3 180.07 3zM203 43c5.52 0 10 4.48 10 10s-4.48 10-10 10-10-4.48-10-10 4.48-10 10-10zm-75 20c35.85 0 65 29.15 65 65s-29.155 65-65 65c-35.85 0-65-29.155-65-65s29.15-65 65-65zm0 20c-24.855 0-45 20.145-45 45s20.145 45 45 45 45-20.145 45-45-20.145-45-45-45z"
    font-family="none" font-weight="none" font-size="none" text-anchor="none" />
</svg>
