<svg width="32" height="22" viewBox="0 0 32 22" fill="none" xmlns="http://www.w3.org/2000/svg">
<path d="M5.28571 1H18.1429C20.5098 1 22.4286 3.23858 22.4286 6V16C22.4286 18.7614 20.5098 21 18.1429 21H5.28571C2.91878 21 1 18.7614 1 16V6C1 3.23858 2.91878 1 5.28571 1ZM22.4286 8.5L27.5714 4C28.5182 3.17157 29.8613 3.39543 30.5714 4.5C30.8496 4.93274 31 5.45907 31 6V16C31 17.3807 30.0406 18.5 28.8571 18.5C28.3935 18.5 27.9423 18.3246 27.5714 18L22.4286 13.5V8.5Z" stroke="#99BF10" stroke-width="1.2" stroke-linecap="round" stroke-linejoin="round"/>
</svg>
