<?xml version="1.0" standalone="no"?>
<svg xmlns="http://www.w3.org/2000/svg" width="400" height="400"><defs><clipPath id="clip-path-dot-color"><rect x="2" y="110" width="12" height="12" transform="rotate(0,8,116)"/><rect x="2" y="122" width="12" height="12" transform="rotate(0,8,128)"/><rect x="2" y="134" width="12" height="12" transform="rotate(0,8,140)"/><rect x="2" y="158" width="12" height="12" transform="rotate(0,8,164)"/><rect x="2" y="194" width="12" height="12" transform="rotate(0,8,200)"/><rect x="2" y="206" width="12" height="12" transform="rotate(0,8,212)"/><rect x="2" y="218" width="12" height="12" transform="rotate(0,8,224)"/><rect x="2" y="254" width="12" height="12" transform="rotate(0,8,260)"/><rect x="2" y="278" width="12" height="12" transform="rotate(0,8,284)"/><rect x="14" y="110" width="12" height="12" transform="rotate(0,20,116)"/><rect x="14" y="134" width="12" height="12" transform="rotate(0,20,140)"/><rect x="14" y="158" width="12" height="12" transform="rotate(0,20,164)"/><rect x="14" y="182" width="12" height="12" transform="rotate(0,20,188)"/><rect x="14" y="206" width="12" height="12" transform="rotate(0,20,212)"/><rect x="14" y="230" width="12" height="12" transform="rotate(0,20,236)"/><rect x="14" y="242" width="12" height="12" transform="rotate(0,20,248)"/><rect x="14" y="254" width="12" height="12" transform="rotate(0,20,260)"/><rect x="14" y="266" width="12" height="12" transform="rotate(0,20,272)"/><rect x="14" y="290" width="12" height="12" transform="rotate(0,20,296)"/><rect x="26" y="98" width="12" height="12" transform="rotate(0,32,104)"/><rect x="26" y="110" width="12" height="12" transform="rotate(0,32,116)"/><rect x="26" y="122" width="12" height="12" transform="rotate(0,32,128)"/><rect x="26" y="146" width="12" height="12" transform="rotate(0,32,152)"/><rect x="26" y="158" width="12" height="12" transform="rotate(0,32,164)"/><rect x="26" y="170" width="12" height="12" transform="rotate(0,32,176)"/><rect x="26" y="230" width="12" height="12" transform="rotate(0,32,236)"/><rect x="26" y="242" width="12" height="12" transform="rotate(0,32,248)"/><rect x="26" y="266" width="12" height="12" transform="rotate(0,32,272)"/><rect x="26" y="278" width="12" height="12" transform="rotate(0,32,284)"/><rect x="26" y="290" width="12" height="12" transform="rotate(0,32,296)"/><rect x="38" y="122" width="12" height="12" transform="rotate(0,44,128)"/><rect x="38" y="134" width="12" height="12" transform="rotate(0,44,140)"/><rect x="38" y="170" width="12" height="12" transform="rotate(0,44,176)"/><rect x="38" y="182" width="12" height="12" transform="rotate(0,44,188)"/><rect x="38" y="206" width="12" height="12" transform="rotate(0,44,212)"/><rect x="38" y="218" width="12" height="12" transform="rotate(0,44,224)"/><rect x="38" y="230" width="12" height="12" transform="rotate(0,44,236)"/><rect x="38" y="242" width="12" height="12" transform="rotate(0,44,248)"/><rect x="38" y="254" width="12" height="12" transform="rotate(0,44,260)"/><rect x="38" y="278" width="12" height="12" transform="rotate(0,44,284)"/><rect x="38" y="290" width="12" height="12" transform="rotate(0,44,296)"/><rect x="50" y="98" width="12" height="12" transform="rotate(0,56,104)"/><rect x="50" y="110" width="12" height="12" transform="rotate(0,56,116)"/><rect x="50" y="158" width="12" height="12" transform="rotate(0,56,164)"/><rect x="50" y="170" width="12" height="12" transform="rotate(0,56,176)"/><rect x="50" y="194" width="12" height="12" transform="rotate(0,56,200)"/><rect x="50" y="218" width="12" height="12" transform="rotate(0,56,224)"/><rect x="50" y="230" width="12" height="12" transform="rotate(0,56,236)"/><rect x="50" y="242" width="12" height="12" transform="rotate(0,56,248)"/><rect x="50" y="290" width="12" height="12" transform="rotate(0,56,296)"/><rect x="62" y="98" width="12" height="12" transform="rotate(0,68,104)"/><rect x="62" y="110" width="12" height="12" transform="rotate(0,68,116)"/><rect x="62" y="170" width="12" height="12" transform="rotate(0,68,176)"/><rect x="62" y="182" width="12" height="12" transform="rotate(0,68,188)"/><rect x="62" y="206" width="12" height="12" transform="rotate(0,68,212)"/><rect x="62" y="218" width="12" height="12" transform="rotate(0,68,224)"/><rect x="62" y="230" width="12" height="12" transform="rotate(0,68,236)"/><rect x="74" y="98" width="12" height="12" transform="rotate(0,80,104)"/><rect x="74" y="122" width="12" height="12" transform="rotate(0,80,128)"/><rect x="74" y="146" width="12" height="12" transform="rotate(0,80,152)"/><rect x="74" y="170" width="12" height="12" transform="rotate(0,80,176)"/><rect x="74" y="194" width="12" height="12" transform="rotate(0,80,200)"/><rect x="74" y="218" width="12" height="12" transform="rotate(0,80,224)"/><rect x="74" y="242" width="12" height="12" transform="rotate(0,80,248)"/><rect x="74" y="266" width="12" height="12" transform="rotate(0,80,272)"/><rect x="74" y="290" width="12" height="12" transform="rotate(0,80,296)"/><rect x="86" y="122" width="12" height="12" transform="rotate(0,92,128)"/><rect x="86" y="134" width="12" height="12" transform="rotate(0,92,140)"/><rect x="86" y="146" width="12" height="12" transform="rotate(0,92,152)"/><rect x="86" y="170" width="12" height="12" transform="rotate(0,92,176)"/><rect x="86" y="182" width="12" height="12" transform="rotate(0,92,188)"/><rect x="86" y="194" width="12" height="12" transform="rotate(0,92,200)"/><rect x="86" y="206" width="12" height="12" transform="rotate(0,92,212)"/><rect x="86" y="218" width="12" height="12" transform="rotate(0,92,224)"/><rect x="86" y="254" width="12" height="12" transform="rotate(0,92,260)"/><rect x="86" y="278" width="12" height="12" transform="rotate(0,92,284)"/><rect x="98" y="14" width="12" height="12" transform="rotate(0,104,20)"/><rect x="98" y="50" width="12" height="12" transform="rotate(0,104,56)"/><rect x="98" y="74" width="12" height="12" transform="rotate(0,104,80)"/><rect x="98" y="98" width="12" height="12" transform="rotate(0,104,104)"/><rect x="98" y="134" width="12" height="12" transform="rotate(0,104,140)"/><rect x="98" y="146" width="12" height="12" transform="rotate(0,104,152)"/><rect x="98" y="158" width="12" height="12" transform="rotate(0,104,164)"/><rect x="98" y="182" width="12" height="12" transform="rotate(0,104,188)"/><rect x="98" y="206" width="12" height="12" transform="rotate(0,104,212)"/><rect x="98" y="230" width="12" height="12" transform="rotate(0,104,236)"/><rect x="98" y="242" width="12" height="12" transform="rotate(0,104,248)"/><rect x="98" y="254" width="12" height="12" transform="rotate(0,104,260)"/><rect x="98" y="266" width="12" height="12" transform="rotate(0,104,272)"/><rect x="98" y="302" width="12" height="12" transform="rotate(0,104,308)"/><rect x="98" y="326" width="12" height="12" transform="rotate(0,104,332)"/><rect x="98" y="338" width="12" height="12" transform="rotate(0,104,344)"/><rect x="98" y="362" width="12" height="12" transform="rotate(0,104,368)"/><rect x="110" y="14" width="12" height="12" transform="rotate(0,116,20)"/><rect x="110" y="86" width="12" height="12" transform="rotate(0,116,92)"/><rect x="110" y="110" width="12" height="12" transform="rotate(0,116,116)"/><rect x="110" y="134" width="12" height="12" transform="rotate(0,116,140)"/><rect x="110" y="146" width="12" height="12" transform="rotate(0,116,152)"/><rect x="110" y="170" width="12" height="12" transform="rotate(0,116,176)"/><rect x="110" y="218" width="12" height="12" transform="rotate(0,116,224)"/><rect x="110" y="242" width="12" height="12" transform="rotate(0,116,248)"/><rect x="110" y="278" width="12" height="12" transform="rotate(0,116,284)"/><rect x="110" y="302" width="12" height="12" transform="rotate(0,116,308)"/><rect x="110" y="350" width="12" height="12" transform="rotate(0,116,356)"/><rect x="110" y="362" width="12" height="12" transform="rotate(0,116,368)"/><rect x="110" y="374" width="12" height="12" transform="rotate(0,116,380)"/><rect x="122" y="2" width="12" height="12" transform="rotate(0,128,8)"/><rect x="122" y="74" width="12" height="12" transform="rotate(0,128,80)"/><rect x="122" y="86" width="12" height="12" transform="rotate(0,128,92)"/><rect x="122" y="122" width="12" height="12" transform="rotate(0,128,128)"/><rect x="122" y="134" width="12" height="12" transform="rotate(0,128,140)"/><rect x="122" y="194" width="12" height="12" transform="rotate(0,128,200)"/><rect x="122" y="206" width="12" height="12" transform="rotate(0,128,212)"/><rect x="122" y="242" width="12" height="12" transform="rotate(0,128,248)"/><rect x="122" y="254" width="12" height="12" transform="rotate(0,128,260)"/><rect x="122" y="266" width="12" height="12" transform="rotate(0,128,272)"/><rect x="122" y="278" width="12" height="12" transform="rotate(0,128,284)"/><rect x="122" y="302" width="12" height="12" transform="rotate(0,128,308)"/><rect x="122" y="350" width="12" height="12" transform="rotate(0,128,356)"/><rect x="122" y="374" width="12" height="12" transform="rotate(0,128,380)"/><rect x="134" y="14" width="12" height="12" transform="rotate(0,140,20)"/><rect x="134" y="50" width="12" height="12" transform="rotate(0,140,56)"/><rect x="134" y="62" width="12" height="12" transform="rotate(0,140,68)"/><rect x="134" y="122" width="12" height="12" transform="rotate(0,140,128)"/><rect x="134" y="254" width="12" height="12" transform="rotate(0,140,260)"/><rect x="134" y="290" width="12" height="12" transform="rotate(0,140,296)"/><rect x="134" y="314" width="12" height="12" transform="rotate(0,140,320)"/><rect x="134" y="374" width="12" height="12" transform="rotate(0,140,380)"/><rect x="134" y="386" width="12" height="12" transform="rotate(0,140,392)"/><rect x="146" y="2" width="12" height="12" transform="rotate(0,152,8)"/><rect x="146" y="26" width="12" height="12" transform="rotate(0,152,32)"/><rect x="146" y="50" width="12" height="12" transform="rotate(0,152,56)"/><rect x="146" y="74" width="12" height="12" transform="rotate(0,152,80)"/><rect x="146" y="110" width="12" height="12" transform="rotate(0,152,116)"/><rect x="146" y="290" width="12" height="12" transform="rotate(0,152,296)"/><rect x="146" y="314" width="12" height="12" transform="rotate(0,152,320)"/><rect x="146" y="326" width="12" height="12" transform="rotate(0,152,332)"/><rect x="146" y="338" width="12" height="12" transform="rotate(0,152,344)"/><rect x="146" y="350" width="12" height="12" transform="rotate(0,152,356)"/><rect x="158" y="14" width="12" height="12" transform="rotate(0,164,20)"/><rect x="158" y="26" width="12" height="12" transform="rotate(0,164,32)"/><rect x="158" y="38" width="12" height="12" transform="rotate(0,164,44)"/><rect x="158" y="62" width="12" height="12" transform="rotate(0,164,68)"/><rect x="158" y="98" width="12" height="12" transform="rotate(0,164,104)"/><rect x="158" y="134" width="12" height="12" transform="rotate(0,164,140)"/><rect x="158" y="254" width="12" height="12" transform="rotate(0,164,260)"/><rect x="158" y="266" width="12" height="12" transform="rotate(0,164,272)"/><rect x="158" y="302" width="12" height="12" transform="rotate(0,164,308)"/><rect x="158" y="326" width="12" height="12" transform="rotate(0,164,332)"/><rect x="158" y="350" width="12" height="12" transform="rotate(0,164,356)"/><rect x="158" y="362" width="12" height="12" transform="rotate(0,164,368)"/><rect x="170" y="2" width="12" height="12" transform="rotate(0,176,8)"/><rect x="170" y="14" width="12" height="12" transform="rotate(0,176,20)"/><rect x="170" y="26" width="12" height="12" transform="rotate(0,176,32)"/><rect x="170" y="74" width="12" height="12" transform="rotate(0,176,80)"/><rect x="170" y="110" width="12" height="12" transform="rotate(0,176,116)"/><rect x="170" y="302" width="12" height="12" transform="rotate(0,176,308)"/><rect x="170" y="314" width="12" height="12" transform="rotate(0,176,320)"/><rect x="170" y="350" width="12" height="12" transform="rotate(0,176,356)"/><rect x="170" y="374" width="12" height="12" transform="rotate(0,176,380)"/><rect x="182" y="2" width="12" height="12" transform="rotate(0,188,8)"/><rect x="182" y="110" width="12" height="12" transform="rotate(0,188,116)"/><rect x="182" y="122" width="12" height="12" transform="rotate(0,188,128)"/><rect x="182" y="134" width="12" height="12" transform="rotate(0,188,140)"/><rect x="182" y="254" width="12" height="12" transform="rotate(0,188,260)"/><rect x="182" y="266" width="12" height="12" transform="rotate(0,188,272)"/><rect x="182" y="290" width="12" height="12" transform="rotate(0,188,296)"/><rect x="182" y="302" width="12" height="12" transform="rotate(0,188,308)"/><rect x="182" y="314" width="12" height="12" transform="rotate(0,188,320)"/><rect x="194" y="50" width="12" height="12" transform="rotate(0,200,56)"/><rect x="194" y="62" width="12" height="12" transform="rotate(0,200,68)"/><rect x="194" y="74" width="12" height="12" transform="rotate(0,200,80)"/><rect x="194" y="86" width="12" height="12" transform="rotate(0,200,92)"/><rect x="194" y="110" width="12" height="12" transform="rotate(0,200,116)"/><rect x="194" y="134" width="12" height="12" transform="rotate(0,200,140)"/><rect x="194" y="254" width="12" height="12" transform="rotate(0,200,260)"/><rect x="194" y="266" width="12" height="12" transform="rotate(0,200,272)"/><rect x="194" y="278" width="12" height="12" transform="rotate(0,200,284)"/><rect x="194" y="290" width="12" height="12" transform="rotate(0,200,296)"/><rect x="194" y="314" width="12" height="12" transform="rotate(0,200,320)"/><rect x="194" y="338" width="12" height="12" transform="rotate(0,200,344)"/><rect x="194" y="374" width="12" height="12" transform="rotate(0,200,380)"/><rect x="206" y="2" width="12" height="12" transform="rotate(0,212,8)"/><rect x="206" y="14" width="12" height="12" transform="rotate(0,212,20)"/><rect x="206" y="38" width="12" height="12" transform="rotate(0,212,44)"/><rect x="206" y="98" width="12" height="12" transform="rotate(0,212,104)"/><rect x="206" y="110" width="12" height="12" transform="rotate(0,212,116)"/><rect x="206" y="122" width="12" height="12" transform="rotate(0,212,128)"/><rect x="206" y="134" width="12" height="12" transform="rotate(0,212,140)"/><rect x="206" y="254" width="12" height="12" transform="rotate(0,212,260)"/><rect x="206" y="278" width="12" height="12" transform="rotate(0,212,284)"/><rect x="206" y="302" width="12" height="12" transform="rotate(0,212,308)"/><rect x="206" y="350" width="12" height="12" transform="rotate(0,212,356)"/><rect x="206" y="362" width="12" height="12" transform="rotate(0,212,368)"/><rect x="206" y="374" width="12" height="12" transform="rotate(0,212,380)"/><rect x="218" y="26" width="12" height="12" transform="rotate(0,224,32)"/><rect x="218" y="50" width="12" height="12" transform="rotate(0,224,56)"/><rect x="218" y="62" width="12" height="12" transform="rotate(0,224,68)"/><rect x="218" y="74" width="12" height="12" transform="rotate(0,224,80)"/><rect x="218" y="86" width="12" height="12" transform="rotate(0,224,92)"/><rect x="218" y="98" width="12" height="12" transform="rotate(0,224,104)"/><rect x="218" y="110" width="12" height="12" transform="rotate(0,224,116)"/><rect x="218" y="122" width="12" height="12" transform="rotate(0,224,128)"/><rect x="218" y="134" width="12" height="12" transform="rotate(0,224,140)"/><rect x="218" y="278" width="12" height="12" transform="rotate(0,224,284)"/><rect x="218" y="290" width="12" height="12" transform="rotate(0,224,296)"/><rect x="218" y="302" width="12" height="12" transform="rotate(0,224,308)"/><rect x="218" y="326" width="12" height="12" transform="rotate(0,224,332)"/><rect x="218" y="350" width="12" height="12" transform="rotate(0,224,356)"/><rect x="230" y="2" width="12" height="12" transform="rotate(0,236,8)"/><rect x="230" y="38" width="12" height="12" transform="rotate(0,236,44)"/><rect x="230" y="50" width="12" height="12" transform="rotate(0,236,56)"/><rect x="230" y="86" width="12" height="12" transform="rotate(0,236,92)"/><rect x="230" y="98" width="12" height="12" transform="rotate(0,236,104)"/><rect x="230" y="110" width="12" height="12" transform="rotate(0,236,116)"/><rect x="230" y="122" width="12" height="12" transform="rotate(0,236,128)"/><rect x="230" y="134" width="12" height="12" transform="rotate(0,236,140)"/><rect x="230" y="266" width="12" height="12" transform="rotate(0,236,272)"/><rect x="230" y="278" width="12" height="12" transform="rotate(0,236,284)"/><rect x="230" y="302" width="12" height="12" transform="rotate(0,236,308)"/><rect x="230" y="326" width="12" height="12" transform="rotate(0,236,332)"/><rect x="230" y="374" width="12" height="12" transform="rotate(0,236,380)"/><rect x="242" y="38" width="12" height="12" transform="rotate(0,248,44)"/><rect x="242" y="74" width="12" height="12" transform="rotate(0,248,80)"/><rect x="242" y="86" width="12" height="12" transform="rotate(0,248,92)"/><rect x="242" y="110" width="12" height="12" transform="rotate(0,248,116)"/><rect x="242" y="122" width="12" height="12" transform="rotate(0,248,128)"/><rect x="242" y="266" width="12" height="12" transform="rotate(0,248,272)"/><rect x="242" y="290" width="12" height="12" transform="rotate(0,248,296)"/><rect x="242" y="314" width="12" height="12" transform="rotate(0,248,320)"/><rect x="242" y="338" width="12" height="12" transform="rotate(0,248,344)"/><rect x="242" y="350" width="12" height="12" transform="rotate(0,248,356)"/><rect x="254" y="2" width="12" height="12" transform="rotate(0,260,8)"/><rect x="254" y="50" width="12" height="12" transform="rotate(0,260,56)"/><rect x="254" y="62" width="12" height="12" transform="rotate(0,260,68)"/><rect x="254" y="86" width="12" height="12" transform="rotate(0,260,92)"/><rect x="254" y="290" width="12" height="12" transform="rotate(0,260,296)"/><rect x="254" y="326" width="12" height="12" transform="rotate(0,260,332)"/><rect x="254" y="374" width="12" height="12" transform="rotate(0,260,380)"/><rect x="266" y="26" width="12" height="12" transform="rotate(0,272,32)"/><rect x="266" y="50" width="12" height="12" transform="rotate(0,272,56)"/><rect x="266" y="62" width="12" height="12" transform="rotate(0,272,68)"/><rect x="266" y="74" width="12" height="12" transform="rotate(0,272,80)"/><rect x="266" y="110" width="12" height="12" transform="rotate(0,272,116)"/><rect x="266" y="146" width="12" height="12" transform="rotate(0,272,152)"/><rect x="266" y="170" width="12" height="12" transform="rotate(0,272,176)"/><rect x="266" y="182" width="12" height="12" transform="rotate(0,272,188)"/><rect x="266" y="194" width="12" height="12" transform="rotate(0,272,200)"/><rect x="266" y="242" width="12" height="12" transform="rotate(0,272,248)"/><rect x="266" y="254" width="12" height="12" transform="rotate(0,272,260)"/><rect x="266" y="278" width="12" height="12" transform="rotate(0,272,284)"/><rect x="266" y="290" width="12" height="12" transform="rotate(0,272,296)"/><rect x="266" y="302" width="12" height="12" transform="rotate(0,272,308)"/><rect x="266" y="374" width="12" height="12" transform="rotate(0,272,380)"/><rect x="278" y="26" width="12" height="12" transform="rotate(0,284,32)"/><rect x="278" y="38" width="12" height="12" transform="rotate(0,284,44)"/><rect x="278" y="50" width="12" height="12" transform="rotate(0,284,56)"/><rect x="278" y="98" width="12" height="12" transform="rotate(0,284,104)"/><rect x="278" y="110" width="12" height="12" transform="rotate(0,284,116)"/><rect x="278" y="146" width="12" height="12" transform="rotate(0,284,152)"/><rect x="278" y="158" width="12" height="12" transform="rotate(0,284,164)"/><rect x="278" y="182" width="12" height="12" transform="rotate(0,284,188)"/><rect x="278" y="206" width="12" height="12" transform="rotate(0,284,212)"/><rect x="278" y="218" width="12" height="12" transform="rotate(0,284,224)"/><rect x="278" y="254" width="12" height="12" transform="rotate(0,284,260)"/><rect x="278" y="266" width="12" height="12" transform="rotate(0,284,272)"/><rect x="278" y="290" width="12" height="12" transform="rotate(0,284,296)"/><rect x="278" y="326" width="12" height="12" transform="rotate(0,284,332)"/><rect x="278" y="338" width="12" height="12" transform="rotate(0,284,344)"/><rect x="278" y="386" width="12" height="12" transform="rotate(0,284,392)"/><rect x="290" y="2" width="12" height="12" transform="rotate(0,296,8)"/><rect x="290" y="14" width="12" height="12" transform="rotate(0,296,20)"/><rect x="290" y="62" width="12" height="12" transform="rotate(0,296,68)"/><rect x="290" y="74" width="12" height="12" transform="rotate(0,296,80)"/><rect x="290" y="86" width="12" height="12" transform="rotate(0,296,92)"/><rect x="290" y="98" width="12" height="12" transform="rotate(0,296,104)"/><rect x="290" y="158" width="12" height="12" transform="rotate(0,296,164)"/><rect x="290" y="170" width="12" height="12" transform="rotate(0,296,176)"/><rect x="290" y="194" width="12" height="12" transform="rotate(0,296,200)"/><rect x="290" y="230" width="12" height="12" transform="rotate(0,296,236)"/><rect x="290" y="242" width="12" height="12" transform="rotate(0,296,248)"/><rect x="290" y="254" width="12" height="12" transform="rotate(0,296,260)"/><rect x="290" y="266" width="12" height="12" transform="rotate(0,296,272)"/><rect x="290" y="278" width="12" height="12" transform="rotate(0,296,284)"/><rect x="290" y="290" width="12" height="12" transform="rotate(0,296,296)"/><rect x="290" y="302" width="12" height="12" transform="rotate(0,296,308)"/><rect x="290" y="314" width="12" height="12" transform="rotate(0,296,320)"/><rect x="290" y="326" width="12" height="12" transform="rotate(0,296,332)"/><rect x="290" y="338" width="12" height="12" transform="rotate(0,296,344)"/><rect x="290" y="350" width="12" height="12" transform="rotate(0,296,356)"/><rect x="290" y="374" width="12" height="12" transform="rotate(0,296,380)"/><rect x="290" y="386" width="12" height="12" transform="rotate(0,296,392)"/><rect x="302" y="98" width="12" height="12" transform="rotate(0,308,104)"/><rect x="302" y="122" width="12" height="12" transform="rotate(0,308,128)"/><rect x="302" y="146" width="12" height="12" transform="rotate(0,308,152)"/><rect x="302" y="170" width="12" height="12" transform="rotate(0,308,176)"/><rect x="302" y="206" width="12" height="12" transform="rotate(0,308,212)"/><rect x="302" y="290" width="12" height="12" transform="rotate(0,308,296)"/><rect x="302" y="338" width="12" height="12" transform="rotate(0,308,344)"/><rect x="302" y="362" width="12" height="12" transform="rotate(0,308,368)"/><rect x="302" y="374" width="12" height="12" transform="rotate(0,308,380)"/><rect x="314" y="122" width="12" height="12" transform="rotate(0,320,128)"/><rect x="314" y="158" width="12" height="12" transform="rotate(0,320,164)"/><rect x="314" y="218" width="12" height="12" transform="rotate(0,320,224)"/><rect x="314" y="254" width="12" height="12" transform="rotate(0,320,260)"/><rect x="314" y="266" width="12" height="12" transform="rotate(0,320,272)"/><rect x="314" y="290" width="12" height="12" transform="rotate(0,320,296)"/><rect x="314" y="314" width="12" height="12" transform="rotate(0,320,320)"/><rect x="314" y="338" width="12" height="12" transform="rotate(0,320,344)"/><rect x="314" y="350" width="12" height="12" transform="rotate(0,320,356)"/><rect x="314" y="374" width="12" height="12" transform="rotate(0,320,380)"/><rect x="326" y="134" width="12" height="12" transform="rotate(0,332,140)"/><rect x="326" y="170" width="12" height="12" transform="rotate(0,332,176)"/><rect x="326" y="194" width="12" height="12" transform="rotate(0,332,200)"/><rect x="326" y="218" width="12" height="12" transform="rotate(0,332,224)"/><rect x="326" y="242" width="12" height="12" transform="rotate(0,332,248)"/><rect x="326" y="254" width="12" height="12" transform="rotate(0,332,260)"/><rect x="326" y="290" width="12" height="12" transform="rotate(0,332,296)"/><rect x="326" y="338" width="12" height="12" transform="rotate(0,332,344)"/><rect x="326" y="374" width="12" height="12" transform="rotate(0,332,380)"/><rect x="326" y="386" width="12" height="12" transform="rotate(0,332,392)"/><rect x="338" y="98" width="12" height="12" transform="rotate(0,344,104)"/><rect x="338" y="122" width="12" height="12" transform="rotate(0,344,128)"/><rect x="338" y="158" width="12" height="12" transform="rotate(0,344,164)"/><rect x="338" y="194" width="12" height="12" transform="rotate(0,344,200)"/><rect x="338" y="206" width="12" height="12" transform="rotate(0,344,212)"/><rect x="338" y="242" width="12" height="12" transform="rotate(0,344,248)"/><rect x="338" y="290" width="12" height="12" transform="rotate(0,344,296)"/><rect x="338" y="302" width="12" height="12" transform="rotate(0,344,308)"/><rect x="338" y="314" width="12" height="12" transform="rotate(0,344,320)"/><rect x="338" y="326" width="12" height="12" transform="rotate(0,344,332)"/><rect x="338" y="338" width="12" height="12" transform="rotate(0,344,344)"/><rect x="338" y="350" width="12" height="12" transform="rotate(0,344,356)"/><rect x="350" y="110" width="12" height="12" transform="rotate(0,356,116)"/><rect x="350" y="122" width="12" height="12" transform="rotate(0,356,128)"/><rect x="350" y="134" width="12" height="12" transform="rotate(0,356,140)"/><rect x="350" y="158" width="12" height="12" transform="rotate(0,356,164)"/><rect x="350" y="170" width="12" height="12" transform="rotate(0,356,176)"/><rect x="350" y="182" width="12" height="12" transform="rotate(0,356,188)"/><rect x="350" y="194" width="12" height="12" transform="rotate(0,356,200)"/><rect x="350" y="230" width="12" height="12" transform="rotate(0,356,236)"/><rect x="350" y="266" width="12" height="12" transform="rotate(0,356,272)"/><rect x="350" y="314" width="12" height="12" transform="rotate(0,356,320)"/><rect x="350" y="326" width="12" height="12" transform="rotate(0,356,332)"/><rect x="350" y="338" width="12" height="12" transform="rotate(0,356,344)"/><rect x="350" y="362" width="12" height="12" transform="rotate(0,356,368)"/><rect x="350" y="374" width="12" height="12" transform="rotate(0,356,380)"/><rect x="362" y="110" width="12" height="12" transform="rotate(0,368,116)"/><rect x="362" y="122" width="12" height="12" transform="rotate(0,368,128)"/><rect x="362" y="158" width="12" height="12" transform="rotate(0,368,164)"/><rect x="362" y="170" width="12" height="12" transform="rotate(0,368,176)"/><rect x="362" y="218" width="12" height="12" transform="rotate(0,368,224)"/><rect x="362" y="230" width="12" height="12" transform="rotate(0,368,236)"/><rect x="362" y="278" width="12" height="12" transform="rotate(0,368,284)"/><rect x="362" y="302" width="12" height="12" transform="rotate(0,368,308)"/><rect x="362" y="314" width="12" height="12" transform="rotate(0,368,320)"/><rect x="362" y="326" width="12" height="12" transform="rotate(0,368,332)"/><rect x="362" y="338" width="12" height="12" transform="rotate(0,368,344)"/><rect x="362" y="362" width="12" height="12" transform="rotate(0,368,368)"/><rect x="374" y="98" width="12" height="12" transform="rotate(0,380,104)"/><rect x="374" y="110" width="12" height="12" transform="rotate(0,380,116)"/><rect x="374" y="146" width="12" height="12" transform="rotate(0,380,152)"/><rect x="374" y="170" width="12" height="12" transform="rotate(0,380,176)"/><rect x="374" y="182" width="12" height="12" transform="rotate(0,380,188)"/><rect x="374" y="206" width="12" height="12" transform="rotate(0,380,212)"/><rect x="374" y="230" width="12" height="12" transform="rotate(0,380,236)"/><rect x="374" y="242" width="12" height="12" transform="rotate(0,380,248)"/><rect x="374" y="254" width="12" height="12" transform="rotate(0,380,260)"/><rect x="374" y="266" width="12" height="12" transform="rotate(0,380,272)"/><rect x="374" y="278" width="12" height="12" transform="rotate(0,380,284)"/><rect x="374" y="290" width="12" height="12" transform="rotate(0,380,296)"/><rect x="386" y="110" width="12" height="12" transform="rotate(0,392,116)"/><rect x="386" y="122" width="12" height="12" transform="rotate(0,392,128)"/><rect x="386" y="242" width="12" height="12" transform="rotate(0,392,248)"/><rect x="386" y="254" width="12" height="12" transform="rotate(0,392,260)"/><rect x="386" y="266" width="12" height="12" transform="rotate(0,392,272)"/><rect x="386" y="290" width="12" height="12" transform="rotate(0,392,296)"/><rect x="386" y="302" width="12" height="12" transform="rotate(0,392,308)"/><rect x="386" y="386" width="12" height="12" transform="rotate(0,392,392)"/><path clip-rule="evenodd" d="M 2 2v 84h 84v -84zM 14 14h 60v 60h -60z" transform="rotate(0,44,44)"/><rect x="26" y="26" width="36" height="36" transform="rotate(0,44,44)"/><path clip-rule="evenodd" d="M 314 2v 84h 84v -84zM 326 14h 60v 60h -60z" transform="rotate(90,356,44)"/><rect x="338" y="26" width="36" height="36" transform="rotate(90,356,44)"/><path clip-rule="evenodd" d="M 2 314v 84h 84v -84zM 14 326h 60v 60h -60z" transform="rotate(-90,44,356)"/><rect x="26" y="338" width="36" height="36" transform="rotate(-90,44,356)"/></clipPath></defs><rect x="0" y="0" height="400" width="400" clip-path="url('#clip-path-background-color')" fill="#ffffff"/><rect x="2" y="2" height="396" width="396" clip-path="url('#clip-path-dot-color')" fill="#000000"/><image href="/static/logos/draftandflowcropped.png" x="134" y="150.5" width="132px" height="99px"/></svg>