<?xml version="1.0" standalone="no"?>
<svg xmlns="http://www.w3.org/2000/svg" width="400" height="400"><defs><clipPath id="clip-path-dot-color"><path d="M 2 110v 12h 12v -6a 6 6, 0, 0, 0, -6 -6" transform="rotate(-90,8,116)"/><rect x="2" y="122" width="12" height="12" transform="rotate(0,8,128)"/><path d="M 2 134v 12h 12v -6a 6 6, 0, 0, 0, -6 -6" transform="rotate(180,8,140)"/><path d="M 2 158v 12h 6a 6 6, 0, 0, 0, 0 -12" transform="rotate(180,8,164)"/><path d="M 2 194v 12h 6a 6 6, 0, 0, 0, 0 -12" transform="rotate(-90,8,200)"/><rect x="2" y="206" width="12" height="12" transform="rotate(0,8,212)"/><path d="M 2 218v 12h 6a 6 6, 0, 0, 0, 0 -12" transform="rotate(90,8,224)"/><path d="M 2 254v 12h 6a 6 6, 0, 0, 0, 0 -12" transform="rotate(180,8,260)"/><circle cx="8" cy="284" r="6" transform="rotate(0,8,284)"/><rect x="14" y="110" width="12" height="12" transform="rotate(0,20,116)"/><path d="M 14 134v 12h 6a 6 6, 0, 0, 0, 0 -12" transform="rotate(0,20,140)"/><rect x="14" y="158" width="12" height="12" transform="rotate(0,20,164)"/><circle cx="20" cy="188" r="6" transform="rotate(0,20,188)"/><path d="M 14 206v 12h 6a 6 6, 0, 0, 0, 0 -12" transform="rotate(0,20,212)"/><path d="M 14 230v 12h 12v -6a 6 6, 0, 0, 0, -6 -6" transform="rotate(-90,20,236)"/><rect x="14" y="242" width="12" height="12" transform="rotate(0,20,248)"/><rect x="14" y="254" width="12" height="12" transform="rotate(0,20,260)"/><path d="M 14 266v 12h 12v -6a 6 6, 0, 0, 0, -6 -6" transform="rotate(180,20,272)"/><path d="M 14 290v 12h 6a 6 6, 0, 0, 0, 0 -12" transform="rotate(180,20,296)"/><path d="M 26 98v 12h 6a 6 6, 0, 0, 0, 0 -12" transform="rotate(-90,32,104)"/><rect x="26" y="110" width="12" height="12" transform="rotate(0,32,116)"/><path d="M 26 122v 12h 12v -6a 6 6, 0, 0, 0, -6 -6" transform="rotate(180,32,128)"/><path d="M 26 146v 12h 6a 6 6, 0, 0, 0, 0 -12" transform="rotate(-90,32,152)"/><rect x="26" y="158" width="12" height="12" transform="rotate(0,32,164)"/><path d="M 26 170v 12h 12v -6a 6 6, 0, 0, 0, -6 -6" transform="rotate(180,32,176)"/><rect x="26" y="230" width="12" height="12" transform="rotate(0,32,236)"/><rect x="26" y="242" width="12" height="12" transform="rotate(0,32,248)"/><path d="M 26 266v 12h 12v -6a 6 6, 0, 0, 0, -6 -6" transform="rotate(0,32,272)"/><rect x="26" y="278" width="12" height="12" transform="rotate(0,32,284)"/><rect x="26" y="290" width="12" height="12" transform="rotate(0,32,296)"/><path d="M 38 122v 12h 12v -6a 6 6, 0, 0, 0, -6 -6" transform="rotate(0,44,128)"/><path d="M 38 134v 12h 6a 6 6, 0, 0, 0, 0 -12" transform="rotate(90,44,140)"/><rect x="38" y="170" width="12" height="12" transform="rotate(0,44,176)"/><path d="M 38 182v 12h 6a 6 6, 0, 0, 0, 0 -12" transform="rotate(90,44,188)"/><path d="M 38 206v 12h 6a 6 6, 0, 0, 0, 0 -12" transform="rotate(-90,44,212)"/><rect x="38" y="218" width="12" height="12" transform="rotate(0,44,224)"/><rect x="38" y="230" width="12" height="12" transform="rotate(0,44,236)"/><rect x="38" y="242" width="12" height="12" transform="rotate(0,44,248)"/><path d="M 38 254v 12h 6a 6 6, 0, 0, 0, 0 -12" transform="rotate(90,44,260)"/><path d="M 38 278v 12h 12v -6a 6 6, 0, 0, 0, -6 -6" transform="rotate(0,44,284)"/><rect x="38" y="290" width="12" height="12" transform="rotate(0,44,296)"/><path d="M 50 98v 12h 12v -6a 6 6, 0, 0, 0, -6 -6" transform="rotate(-90,56,104)"/><path d="M 50 110v 12h 12v -6a 6 6, 0, 0, 0, -6 -6" transform="rotate(180,56,116)"/><path d="M 50 158v 12h 6a 6 6, 0, 0, 0, 0 -12" transform="rotate(-90,56,164)"/><rect x="50" y="170" width="12" height="12" transform="rotate(0,56,176)"/><circle cx="56" cy="200" r="6" transform="rotate(0,56,200)"/><rect x="50" y="218" width="12" height="12" transform="rotate(0,56,224)"/><rect x="50" y="230" width="12" height="12" transform="rotate(0,56,236)"/><path d="M 50 242v 12h 12v -6a 6 6, 0, 0, 0, -6 -6" transform="rotate(90,56,248)"/><path d="M 50 290v 12h 6a 6 6, 0, 0, 0, 0 -12" transform="rotate(0,56,296)"/><rect x="62" y="98" width="12" height="12" transform="rotate(0,68,104)"/><path d="M 62 110v 12h 12v -6a 6 6, 0, 0, 0, -6 -6" transform="rotate(90,68,116)"/><rect x="62" y="170" width="12" height="12" transform="rotate(0,68,176)"/><path d="M 62 182v 12h 6a 6 6, 0, 0, 0, 0 -12" transform="rotate(90,68,188)"/><path d="M 62 206v 12h 6a 6 6, 0, 0, 0, 0 -12" transform="rotate(-90,68,212)"/><rect x="62" y="218" width="12" height="12" transform="rotate(0,68,224)"/><path d="M 62 230v 12h 12v -6a 6 6, 0, 0, 0, -6 -6" transform="rotate(90,68,236)"/><path d="M 74 98v 12h 6a 6 6, 0, 0, 0, 0 -12" transform="rotate(0,80,104)"/><path d="M 74 122v 12h 6a 6 6, 0, 0, 0, 0 -12" transform="rotate(180,80,128)"/><path d="M 74 146v 12h 6a 6 6, 0, 0, 0, 0 -12" transform="rotate(180,80,152)"/><rect x="74" y="170" width="12" height="12" transform="rotate(0,80,176)"/><path d="M 74 194v 12h 6a 6 6, 0, 0, 0, 0 -12" transform="rotate(180,80,200)"/><rect x="74" y="218" width="12" height="12" transform="rotate(0,80,224)"/><circle cx="80" cy="248" r="6" transform="rotate(0,80,248)"/><circle cx="80" cy="272" r="6" transform="rotate(0,80,272)"/><circle cx="80" cy="296" r="6" transform="rotate(0,80,296)"/><path d="M 86 122v 12h 12v -6a 6 6, 0, 0, 0, -6 -6" transform="rotate(0,92,128)"/><rect x="86" y="134" width="12" height="12" transform="rotate(0,92,140)"/><rect x="86" y="146" width="12" height="12" transform="rotate(0,92,152)"/><path d="M 86 170v 12h 12v -6a 6 6, 0, 0, 0, -6 -6" transform="rotate(0,92,176)"/><rect x="86" y="182" width="12" height="12" transform="rotate(0,92,188)"/><rect x="86" y="194" width="12" height="12" transform="rotate(0,92,200)"/><rect x="86" y="206" width="12" height="12" transform="rotate(0,92,212)"/><path d="M 86 218v 12h 12v -6a 6 6, 0, 0, 0, -6 -6" transform="rotate(90,92,224)"/><path d="M 86 254v 12h 6a 6 6, 0, 0, 0, 0 -12" transform="rotate(180,92,260)"/><circle cx="92" cy="284" r="6" transform="rotate(0,92,284)"/><path d="M 98 14v 12h 6a 6 6, 0, 0, 0, 0 -12" transform="rotate(180,104,20)"/><circle cx="104" cy="56" r="6" transform="rotate(0,104,56)"/><circle cx="104" cy="80" r="6" transform="rotate(0,104,80)"/><circle cx="104" cy="104" r="6" transform="rotate(0,104,104)"/><rect x="98" y="134" width="12" height="12" transform="rotate(0,104,140)"/><rect x="98" y="146" width="12" height="12" transform="rotate(0,104,152)"/><path d="M 98 158v 12h 6a 6 6, 0, 0, 0, 0 -12" transform="rotate(90,104,164)"/><path d="M 98 182v 12h 6a 6 6, 0, 0, 0, 0 -12" transform="rotate(0,104,188)"/><path d="M 98 206v 12h 6a 6 6, 0, 0, 0, 0 -12" transform="rotate(0,104,212)"/><path d="M 98 230v 12h 6a 6 6, 0, 0, 0, 0 -12" transform="rotate(-90,104,236)"/><rect x="98" y="242" width="12" height="12" transform="rotate(0,104,248)"/><rect x="98" y="254" width="12" height="12" transform="rotate(0,104,260)"/><path d="M 98 266v 12h 6a 6 6, 0, 0, 0, 0 -12" transform="rotate(90,104,272)"/><path d="M 98 302v 12h 6a 6 6, 0, 0, 0, 0 -12" transform="rotate(180,104,308)"/><path d="M 98 326v 12h 6a 6 6, 0, 0, 0, 0 -12" transform="rotate(-90,104,332)"/><path d="M 98 338v 12h 6a 6 6, 0, 0, 0, 0 -12" transform="rotate(90,104,344)"/><path d="M 98 362v 12h 6a 6 6, 0, 0, 0, 0 -12" transform="rotate(180,104,368)"/><path d="M 110 14v 12h 6a 6 6, 0, 0, 0, 0 -12" transform="rotate(0,116,20)"/><path d="M 110 86v 12h 6a 6 6, 0, 0, 0, 0 -12" transform="rotate(180,116,92)"/><circle cx="116" cy="116" r="6" transform="rotate(0,116,116)"/><rect x="110" y="134" width="12" height="12" transform="rotate(0,116,140)"/><path d="M 110 146v 12h 12v -6a 6 6, 0, 0, 0, -6 -6" transform="rotate(90,116,152)"/><circle cx="116" cy="176" r="6" transform="rotate(0,116,176)"/><circle cx="116" cy="224" r="6" transform="rotate(0,116,224)"/><rect x="110" y="242" width="12" height="12" transform="rotate(0,116,248)"/><path d="M 110 278v 12h 6a 6 6, 0, 0, 0, 0 -12" transform="rotate(180,116,284)"/><rect x="110" y="302" width="12" height="12" transform="rotate(0,116,308)"/><path d="M 110 350v 12h 12v -6a 6 6, 0, 0, 0, -6 -6" transform="rotate(-90,116,356)"/><rect x="110" y="362" width="12" height="12" transform="rotate(0,116,368)"/><path d="M 110 374v 12h 12v -6a 6 6, 0, 0, 0, -6 -6" transform="rotate(180,116,380)"/><circle cx="128" cy="8" r="6" transform="rotate(0,128,8)"/><path d="M 122 74v 12h 6a 6 6, 0, 0, 0, 0 -12" transform="rotate(-90,128,80)"/><path d="M 122 86v 12h 12v -6a 6 6, 0, 0, 0, -6 -6" transform="rotate(90,128,92)"/><path d="M 122 122v 12h 12v -6a 6 6, 0, 0, 0, -6 -6" transform="rotate(-90,128,128)"/><path d="M 122 134v 12h 12v -6a 6 6, 0, 0, 0, -6 -6" transform="rotate(90,128,140)"/><path d="M 122 194v 12h 6a 6 6, 0, 0, 0, 0 -12" transform="rotate(-90,128,200)"/><path d="M 122 206v 12h 6a 6 6, 0, 0, 0, 0 -12" transform="rotate(90,128,212)"/><path d="M 122 242v 12h 12v -6a 6 6, 0, 0, 0, -6 -6" transform="rotate(0,128,248)"/><rect x="122" y="254" width="12" height="12" transform="rotate(0,128,260)"/><rect x="122" y="266" width="12" height="12" transform="rotate(0,128,272)"/><path d="M 122 278v 12h 12v -6a 6 6, 0, 0, 0, -6 -6" transform="rotate(90,128,284)"/><path d="M 122 302v 12h 6a 6 6, 0, 0, 0, 0 -12" transform="rotate(0,128,308)"/><path d="M 122 350v 12h 6a 6 6, 0, 0, 0, 0 -12" transform="rotate(0,128,356)"/><rect x="122" y="374" width="12" height="12" transform="rotate(0,128,380)"/><circle cx="140" cy="20" r="6" transform="rotate(0,140,20)"/><path d="M 134 50v 12h 12v -6a 6 6, 0, 0, 0, -6 -6" transform="rotate(-90,140,56)"/><path d="M 134 62v 12h 6a 6 6, 0, 0, 0, 0 -12" transform="rotate(90,140,68)"/><path d="M 134 122v 12h 6a 6 6, 0, 0, 0, 0 -12" transform="rotate(0,140,128)"/><path d="M 134 254v 12h 6a 6 6, 0, 0, 0, 0 -12" transform="rotate(0,140,260)"/><path d="M 134 290v 12h 6a 6 6, 0, 0, 0, 0 -12" transform="rotate(180,140,296)"/><path d="M 134 314v 12h 6a 6 6, 0, 0, 0, 0 -12" transform="rotate(180,140,320)"/><path d="M 134 374v 12h 12v -6a 6 6, 0, 0, 0, -6 -6" transform="rotate(0,140,380)"/><path d="M 134 386v 12h 6a 6 6, 0, 0, 0, 0 -12" transform="rotate(90,140,392)"/><circle cx="152" cy="8" r="6" transform="rotate(0,152,8)"/><path d="M 146 26v 12h 6a 6 6, 0, 0, 0, 0 -12" transform="rotate(180,152,32)"/><path d="M 146 50v 12h 6a 6 6, 0, 0, 0, 0 -12" transform="rotate(0,152,56)"/><circle cx="152" cy="80" r="6" transform="rotate(0,152,80)"/><circle cx="152" cy="116" r="6" transform="rotate(0,152,116)"/><path d="M 146 290v 12h 6a 6 6, 0, 0, 0, 0 -12" transform="rotate(0,152,296)"/><path d="M 146 314v 12h 12v -6a 6 6, 0, 0, 0, -6 -6" transform="rotate(0,152,320)"/><rect x="146" y="326" width="12" height="12" transform="rotate(0,152,332)"/><rect x="146" y="338" width="12" height="12" transform="rotate(0,152,344)"/><path d="M 146 350v 12h 12v -6a 6 6, 0, 0, 0, -6 -6" transform="rotate(180,152,356)"/><path d="M 158 14v 12h 12v -6a 6 6, 0, 0, 0, -6 -6" transform="rotate(-90,164,20)"/><rect x="158" y="26" width="12" height="12" transform="rotate(0,164,32)"/><path d="M 158 38v 12h 6a 6 6, 0, 0, 0, 0 -12" transform="rotate(90,164,44)"/><circle cx="164" cy="68" r="6" transform="rotate(0,164,68)"/><circle cx="164" cy="104" r="6" transform="rotate(0,164,104)"/><circle cx="164" cy="140" r="6" transform="rotate(0,164,140)"/><path d="M 158 254v 12h 6a 6 6, 0, 0, 0, 0 -12" transform="rotate(-90,164,260)"/><path d="M 158 266v 12h 6a 6 6, 0, 0, 0, 0 -12" transform="rotate(90,164,272)"/><path d="M 158 302v 12h 6a 6 6, 0, 0, 0, 0 -12" transform="rotate(180,164,308)"/><path d="M 158 326v 12h 6a 6 6, 0, 0, 0, 0 -12" transform="rotate(0,164,332)"/><rect x="158" y="350" width="12" height="12" transform="rotate(0,164,356)"/><path d="M 158 362v 12h 6a 6 6, 0, 0, 0, 0 -12" transform="rotate(90,164,368)"/><path d="M 170 2v 12h 12v -6a 6 6, 0, 0, 0, -6 -6" transform="rotate(-90,176,8)"/><rect x="170" y="14" width="12" height="12" transform="rotate(0,176,20)"/><path d="M 170 26v 12h 12v -6a 6 6, 0, 0, 0, -6 -6" transform="rotate(90,176,32)"/><circle cx="176" cy="80" r="6" transform="rotate(0,176,80)"/><path d="M 170 110v 12h 6a 6 6, 0, 0, 0, 0 -12" transform="rotate(180,176,116)"/><rect x="170" y="302" width="12" height="12" transform="rotate(0,176,308)"/><path d="M 170 314v 12h 12v -6a 6 6, 0, 0, 0, -6 -6" transform="rotate(180,176,320)"/><path d="M 170 350v 12h 6a 6 6, 0, 0, 0, 0 -12" transform="rotate(0,176,356)"/><circle cx="176" cy="380" r="6" transform="rotate(0,176,380)"/><path d="M 182 2v 12h 6a 6 6, 0, 0, 0, 0 -12" transform="rotate(0,188,8)"/><rect x="182" y="110" width="12" height="12" transform="rotate(0,188,116)"/><rect x="182" y="122" width="12" height="12" transform="rotate(0,188,128)"/><path d="M 182 134v 12h 12v -6a 6 6, 0, 0, 0, -6 -6" transform="rotate(180,188,140)"/><path d="M 182 254v 12h 12v -6a 6 6, 0, 0, 0, -6 -6" transform="rotate(-90,188,260)"/><path d="M 182 266v 12h 12v -6a 6 6, 0, 0, 0, -6 -6" transform="rotate(180,188,272)"/><path d="M 182 290v 12h 12v -6a 6 6, 0, 0, 0, -6 -6" transform="rotate(-90,188,296)"/><rect x="182" y="302" width="12" height="12" transform="rotate(0,188,308)"/><rect x="182" y="314" width="12" height="12" transform="rotate(0,188,320)"/><path d="M 194 50v 12h 6a 6 6, 0, 0, 0, 0 -12" transform="rotate(-90,200,56)"/><rect x="194" y="62" width="12" height="12" transform="rotate(0,200,68)"/><rect x="194" y="74" width="12" height="12" transform="rotate(0,200,80)"/><path d="M 194 86v 12h 6a 6 6, 0, 0, 0, 0 -12" transform="rotate(90,200,92)"/><rect x="194" y="110" width="12" height="12" transform="rotate(0,200,116)"/><rect x="194" y="134" width="12" height="12" transform="rotate(0,200,140)"/><rect x="194" y="254" width="12" height="12" transform="rotate(0,200,260)"/><rect x="194" y="266" width="12" height="12" transform="rotate(0,200,272)"/><rect x="194" y="278" width="12" height="12" transform="rotate(0,200,284)"/><path d="M 194 290v 12h 12v -6a 6 6, 0, 0, 0, -6 -6" transform="rotate(90,200,296)"/><path d="M 194 314v 12h 6a 6 6, 0, 0, 0, 0 -12" transform="rotate(0,200,320)"/><circle cx="200" cy="344" r="6" transform="rotate(0,200,344)"/><path d="M 194 374v 12h 6a 6 6, 0, 0, 0, 0 -12" transform="rotate(180,200,380)"/><path d="M 206 2v 12h 6a 6 6, 0, 0, 0, 0 -12" transform="rotate(-90,212,8)"/><path d="M 206 14v 12h 6a 6 6, 0, 0, 0, 0 -12" transform="rotate(90,212,20)"/><circle cx="212" cy="44" r="6" transform="rotate(0,212,44)"/><path d="M 206 98v 12h 12v -6a 6 6, 0, 0, 0, -6 -6" transform="rotate(-90,212,104)"/><rect x="206" y="110" width="12" height="12" transform="rotate(0,212,116)"/><rect x="206" y="122" width="12" height="12" transform="rotate(0,212,128)"/><rect x="206" y="134" width="12" height="12" transform="rotate(0,212,140)"/><path d="M 206 254v 12h 6a 6 6, 0, 0, 0, 0 -12" transform="rotate(0,212,260)"/><rect x="206" y="278" width="12" height="12" transform="rotate(0,212,284)"/><path d="M 206 302v 12h 6a 6 6, 0, 0, 0, 0 -12" transform="rotate(180,212,308)"/><path d="M 206 350v 12h 12v -6a 6 6, 0, 0, 0, -6 -6" transform="rotate(-90,212,356)"/><rect x="206" y="362" width="12" height="12" transform="rotate(0,212,368)"/><path d="M 206 374v 12h 12v -6a 6 6, 0, 0, 0, -6 -6" transform="rotate(90,212,380)"/><circle cx="224" cy="32" r="6" transform="rotate(0,224,32)"/><path d="M 218 50v 12h 12v -6a 6 6, 0, 0, 0, -6 -6" transform="rotate(-90,224,56)"/><rect x="218" y="62" width="12" height="12" transform="rotate(0,224,68)"/><rect x="218" y="74" width="12" height="12" transform="rotate(0,224,80)"/><rect x="218" y="86" width="12" height="12" transform="rotate(0,224,92)"/><rect x="218" y="98" width="12" height="12" transform="rotate(0,224,104)"/><rect x="218" y="110" width="12" height="12" transform="rotate(0,224,116)"/><rect x="218" y="122" width="12" height="12" transform="rotate(0,224,128)"/><rect x="218" y="134" width="12" height="12" transform="rotate(0,224,140)"/><rect x="218" y="278" width="12" height="12" transform="rotate(0,224,284)"/><rect x="218" y="290" width="12" height="12" transform="rotate(0,224,296)"/><rect x="218" y="302" width="12" height="12" transform="rotate(0,224,308)"/><path d="M 218 326v 12h 6a 6 6, 0, 0, 0, 0 -12" transform="rotate(180,224,332)"/><path d="M 218 350v 12h 6a 6 6, 0, 0, 0, 0 -12" transform="rotate(0,224,356)"/><circle cx="236" cy="8" r="6" transform="rotate(0,236,8)"/><path d="M 230 38v 12h 12v -6a 6 6, 0, 0, 0, -6 -6" transform="rotate(-90,236,44)"/><path d="M 230 50v 12h 12v -6a 6 6, 0, 0, 0, -6 -6" transform="rotate(90,236,56)"/><rect x="230" y="86" width="12" height="12" transform="rotate(0,236,92)"/><rect x="230" y="98" width="12" height="12" transform="rotate(0,236,104)"/><rect x="230" y="110" width="12" height="12" transform="rotate(0,236,116)"/><rect x="230" y="122" width="12" height="12" transform="rotate(0,236,128)"/><path d="M 230 134v 12h 12v -6a 6 6, 0, 0, 0, -6 -6" transform="rotate(90,236,140)"/><path d="M 230 266v 12h 12v -6a 6 6, 0, 0, 0, -6 -6" transform="rotate(-90,236,272)"/><path d="M 230 278v 12h 12v -6a 6 6, 0, 0, 0, -6 -6" transform="rotate(90,236,284)"/><path d="M 230 302v 12h 6a 6 6, 0, 0, 0, 0 -12" transform="rotate(0,236,308)"/><path d="M 230 326v 12h 6a 6 6, 0, 0, 0, 0 -12" transform="rotate(0,236,332)"/><circle cx="236" cy="380" r="6" transform="rotate(0,236,380)"/><path d="M 242 38v 12h 6a 6 6, 0, 0, 0, 0 -12" transform="rotate(0,248,44)"/><path d="M 242 74v 12h 6a 6 6, 0, 0, 0, 0 -12" transform="rotate(-90,248,80)"/><rect x="242" y="86" width="12" height="12" transform="rotate(0,248,92)"/><path d="M 242 110v 12h 12v -6a 6 6, 0, 0, 0, -6 -6" transform="rotate(0,248,116)"/><path d="M 242 122v 12h 12v -6a 6 6, 0, 0, 0, -6 -6" transform="rotate(90,248,128)"/><path d="M 242 266v 12h 6a 6 6, 0, 0, 0, 0 -12" transform="rotate(0,248,272)"/><path d="M 242 290v 12h 6a 6 6, 0, 0, 0, 0 -12" transform="rotate(180,248,296)"/><circle cx="248" cy="320" r="6" transform="rotate(0,248,320)"/><path d="M 242 338v 12h 6a 6 6, 0, 0, 0, 0 -12" transform="rotate(-90,248,344)"/><path d="M 242 350v 12h 6a 6 6, 0, 0, 0, 0 -12" transform="rotate(90,248,356)"/><circle cx="260" cy="8" r="6" transform="rotate(0,260,8)"/><path d="M 254 50v 12h 12v -6a 6 6, 0, 0, 0, -6 -6" transform="rotate(-90,260,56)"/><path d="M 254 62v 12h 12v -6a 6 6, 0, 0, 0, -6 -6" transform="rotate(180,260,68)"/><path d="M 254 86v 12h 6a 6 6, 0, 0, 0, 0 -12" transform="rotate(0,260,92)"/><rect x="254" y="290" width="12" height="12" transform="rotate(0,260,296)"/><circle cx="260" cy="332" r="6" transform="rotate(0,260,332)"/><path d="M 254 374v 12h 6a 6 6, 0, 0, 0, 0 -12" transform="rotate(180,260,380)"/><path d="M 266 26v 12h 6a 6 6, 0, 0, 0, 0 -12" transform="rotate(180,272,32)"/><rect x="266" y="50" width="12" height="12" transform="rotate(0,272,56)"/><rect x="266" y="62" width="12" height="12" transform="rotate(0,272,68)"/><path d="M 266 74v 12h 6a 6 6, 0, 0, 0, 0 -12" transform="rotate(90,272,80)"/><path d="M 266 110v 12h 6a 6 6, 0, 0, 0, 0 -12" transform="rotate(180,272,116)"/><path d="M 266 146v 12h 6a 6 6, 0, 0, 0, 0 -12" transform="rotate(180,272,152)"/><path d="M 266 170v 12h 6a 6 6, 0, 0, 0, 0 -12" transform="rotate(-90,272,176)"/><rect x="266" y="182" width="12" height="12" transform="rotate(0,272,188)"/><path d="M 266 194v 12h 6a 6 6, 0, 0, 0, 0 -12" transform="rotate(90,272,200)"/><path d="M 266 242v 12h 6a 6 6, 0, 0, 0, 0 -12" transform="rotate(-90,272,248)"/><path d="M 266 254v 12h 12v -6a 6 6, 0, 0, 0, -6 -6" transform="rotate(180,272,260)"/><path d="M 266 278v 12h 6a 6 6, 0, 0, 0, 0 -12" transform="rotate(-90,272,284)"/><rect x="266" y="290" width="12" height="12" transform="rotate(0,272,296)"/><path d="M 266 302v 12h 6a 6 6, 0, 0, 0, 0 -12" transform="rotate(90,272,308)"/><path d="M 266 374v 12h 6a 6 6, 0, 0, 0, 0 -12" transform="rotate(0,272,380)"/><path d="M 278 26v 12h 12v -6a 6 6, 0, 0, 0, -6 -6" transform="rotate(0,284,32)"/><rect x="278" y="38" width="12" height="12" transform="rotate(0,284,44)"/><path d="M 278 50v 12h 12v -6a 6 6, 0, 0, 0, -6 -6" transform="rotate(90,284,56)"/><path d="M 278 98v 12h 12v -6a 6 6, 0, 0, 0, -6 -6" transform="rotate(-90,284,104)"/><path d="M 278 110v 12h 12v -6a 6 6, 0, 0, 0, -6 -6" transform="rotate(90,284,116)"/><path d="M 278 146v 12h 12v -6a 6 6, 0, 0, 0, -6 -6" transform="rotate(0,284,152)"/><path d="M 278 158v 12h 12v -6a 6 6, 0, 0, 0, -6 -6" transform="rotate(180,284,164)"/><path d="M 278 182v 12h 6a 6 6, 0, 0, 0, 0 -12" transform="rotate(0,284,188)"/><path d="M 278 206v 12h 6a 6 6, 0, 0, 0, 0 -12" transform="rotate(-90,284,212)"/><path d="M 278 218v 12h 6a 6 6, 0, 0, 0, 0 -12" transform="rotate(90,284,224)"/><rect x="278" y="254" width="12" height="12" transform="rotate(0,284,260)"/><path d="M 278 266v 12h 12v -6a 6 6, 0, 0, 0, -6 -6" transform="rotate(180,284,272)"/><rect x="278" y="290" width="12" height="12" transform="rotate(0,284,296)"/><path d="M 278 326v 12h 12v -6a 6 6, 0, 0, 0, -6 -6" transform="rotate(-90,284,332)"/><path d="M 278 338v 12h 12v -6a 6 6, 0, 0, 0, -6 -6" transform="rotate(180,284,344)"/><path d="M 278 386v 12h 6a 6 6, 0, 0, 0, 0 -12" transform="rotate(180,284,392)"/><path d="M 290 2v 12h 6a 6 6, 0, 0, 0, 0 -12" transform="rotate(-90,296,8)"/><path d="M 290 14v 12h 6a 6 6, 0, 0, 0, 0 -12" transform="rotate(90,296,20)"/><path d="M 290 62v 12h 6a 6 6, 0, 0, 0, 0 -12" transform="rotate(-90,296,68)"/><rect x="290" y="74" width="12" height="12" transform="rotate(0,296,80)"/><rect x="290" y="86" width="12" height="12" transform="rotate(0,296,92)"/><rect x="290" y="98" width="12" height="12" transform="rotate(0,296,104)"/><path d="M 290 158v 12h 12v -6a 6 6, 0, 0, 0, -6 -6" transform="rotate(0,296,164)"/><path d="M 290 170v 12h 12v -6a 6 6, 0, 0, 0, -6 -6" transform="rotate(180,296,176)"/><circle cx="296" cy="200" r="6" transform="rotate(0,296,200)"/><path d="M 290 230v 12h 6a 6 6, 0, 0, 0, 0 -12" transform="rotate(-90,296,236)"/><rect x="290" y="242" width="12" height="12" transform="rotate(0,296,248)"/><rect x="290" y="254" width="12" height="12" transform="rotate(0,296,260)"/><rect x="290" y="266" width="12" height="12" transform="rotate(0,296,272)"/><rect x="290" y="278" width="12" height="12" transform="rotate(0,296,284)"/><rect x="290" y="290" width="12" height="12" transform="rotate(0,296,296)"/><rect x="290" y="302" width="12" height="12" transform="rotate(0,296,308)"/><rect x="290" y="314" width="12" height="12" transform="rotate(0,296,320)"/><rect x="290" y="326" width="12" height="12" transform="rotate(0,296,332)"/><rect x="290" y="338" width="12" height="12" transform="rotate(0,296,344)"/><path d="M 290 350v 12h 6a 6 6, 0, 0, 0, 0 -12" transform="rotate(90,296,356)"/><path d="M 290 374v 12h 12v -6a 6 6, 0, 0, 0, -6 -6" transform="rotate(-90,296,380)"/><path d="M 290 386v 12h 12v -6a 6 6, 0, 0, 0, -6 -6" transform="rotate(90,296,392)"/><path d="M 302 98v 12h 6a 6 6, 0, 0, 0, 0 -12" transform="rotate(0,308,104)"/><path d="M 302 122v 12h 6a 6 6, 0, 0, 0, 0 -12" transform="rotate(180,308,128)"/><circle cx="308" cy="152" r="6" transform="rotate(0,308,152)"/><path d="M 302 170v 12h 6a 6 6, 0, 0, 0, 0 -12" transform="rotate(0,308,176)"/><circle cx="308" cy="212" r="6" transform="rotate(0,308,212)"/><rect x="302" y="290" width="12" height="12" transform="rotate(0,308,296)"/><rect x="302" y="338" width="12" height="12" transform="rotate(0,308,344)"/><path d="M 302 362v 12h 6a 6 6, 0, 0, 0, 0 -12" transform="rotate(-90,308,368)"/><rect x="302" y="374" width="12" height="12" transform="rotate(0,308,380)"/><path d="M 314 122v 12h 6a 6 6, 0, 0, 0, 0 -12" transform="rotate(0,320,128)"/><circle cx="320" cy="164" r="6" transform="rotate(0,320,164)"/><path d="M 314 218v 12h 6a 6 6, 0, 0, 0, 0 -12" transform="rotate(180,320,224)"/><path d="M 314 254v 12h 12v -6a 6 6, 0, 0, 0, -6 -6" transform="rotate(-90,320,260)"/><path d="M 314 266v 12h 6a 6 6, 0, 0, 0, 0 -12" transform="rotate(90,320,272)"/><rect x="314" y="290" width="12" height="12" transform="rotate(0,320,296)"/><circle cx="320" cy="320" r="6" transform="rotate(0,320,320)"/><rect x="314" y="338" width="12" height="12" transform="rotate(0,320,344)"/><path d="M 314 350v 12h 6a 6 6, 0, 0, 0, 0 -12" transform="rotate(90,320,356)"/><rect x="314" y="374" width="12" height="12" transform="rotate(0,320,380)"/><circle cx="332" cy="140" r="6" transform="rotate(0,332,140)"/><circle cx="332" cy="176" r="6" transform="rotate(0,332,176)"/><path d="M 326 194v 12h 6a 6 6, 0, 0, 0, 0 -12" transform="rotate(180,332,200)"/><path d="M 326 218v 12h 6a 6 6, 0, 0, 0, 0 -12" transform="rotate(0,332,224)"/><path d="M 326 242v 12h 12v -6a 6 6, 0, 0, 0, -6 -6" transform="rotate(-90,332,248)"/><path d="M 326 254v 12h 12v -6a 6 6, 0, 0, 0, -6 -6" transform="rotate(90,332,260)"/><rect x="326" y="290" width="12" height="12" transform="rotate(0,332,296)"/><rect x="326" y="338" width="12" height="12" transform="rotate(0,332,344)"/><path d="M 326 374v 12h 12v -6a 6 6, 0, 0, 0, -6 -6" transform="rotate(0,332,380)"/><path d="M 326 386v 12h 6a 6 6, 0, 0, 0, 0 -12" transform="rotate(90,332,392)"/><circle cx="344" cy="104" r="6" transform="rotate(0,344,104)"/><path d="M 338 122v 12h 6a 6 6, 0, 0, 0, 0 -12" transform="rotate(180,344,128)"/><path d="M 338 158v 12h 6a 6 6, 0, 0, 0, 0 -12" transform="rotate(180,344,164)"/><rect x="338" y="194" width="12" height="12" transform="rotate(0,344,200)"/><path d="M 338 206v 12h 6a 6 6, 0, 0, 0, 0 -12" transform="rotate(90,344,212)"/><path d="M 338 242v 12h 6a 6 6, 0, 0, 0, 0 -12" transform="rotate(0,344,248)"/><path d="M 338 290v 12h 12v -6a 6 6, 0, 0, 0, -6 -6" transform="rotate(0,344,296)"/><rect x="338" y="302" width="12" height="12" transform="rotate(0,344,308)"/><rect x="338" y="314" width="12" height="12" transform="rotate(0,344,320)"/><rect x="338" y="326" width="12" height="12" transform="rotate(0,344,332)"/><rect x="338" y="338" width="12" height="12" transform="rotate(0,344,344)"/><path d="M 338 350v 12h 6a 6 6, 0, 0, 0, 0 -12" transform="rotate(90,344,356)"/><path d="M 350 110v 12h 12v -6a 6 6, 0, 0, 0, -6 -6" transform="rotate(-90,356,116)"/><rect x="350" y="122" width="12" height="12" transform="rotate(0,356,128)"/><path d="M 350 134v 12h 6a 6 6, 0, 0, 0, 0 -12" transform="rotate(90,356,140)"/><rect x="350" y="158" width="12" height="12" transform="rotate(0,356,164)"/><rect x="350" y="170" width="12" height="12" transform="rotate(0,356,176)"/><rect x="350" y="182" width="12" height="12" transform="rotate(0,356,188)"/><path d="M 350 194v 12h 12v -6a 6 6, 0, 0, 0, -6 -6" transform="rotate(90,356,200)"/><path d="M 350 230v 12h 6a 6 6, 0, 0, 0, 0 -12" transform="rotate(180,356,236)"/><circle cx="356" cy="272" r="6" transform="rotate(0,356,272)"/><rect x="350" y="314" width="12" height="12" transform="rotate(0,356,320)"/><rect x="350" y="326" width="12" height="12" transform="rotate(0,356,332)"/><rect x="350" y="338" width="12" height="12" transform="rotate(0,356,344)"/><path d="M 350 362v 12h 12v -6a 6 6, 0, 0, 0, -6 -6" transform="rotate(-90,356,368)"/><path d="M 350 374v 12h 6a 6 6, 0, 0, 0, 0 -12" transform="rotate(90,356,380)"/><rect x="362" y="110" width="12" height="12" transform="rotate(0,368,116)"/><path d="M 362 122v 12h 12v -6a 6 6, 0, 0, 0, -6 -6" transform="rotate(90,368,128)"/><path d="M 362 158v 12h 12v -6a 6 6, 0, 0, 0, -6 -6" transform="rotate(0,368,164)"/><rect x="362" y="170" width="12" height="12" transform="rotate(0,368,176)"/><path d="M 362 218v 12h 6a 6 6, 0, 0, 0, 0 -12" transform="rotate(-90,368,224)"/><rect x="362" y="230" width="12" height="12" transform="rotate(0,368,236)"/><path d="M 362 278v 12h 6a 6 6, 0, 0, 0, 0 -12" transform="rotate(180,368,284)"/><path d="M 362 302v 12h 6a 6 6, 0, 0, 0, 0 -12" transform="rotate(-90,368,308)"/><rect x="362" y="314" width="12" height="12" transform="rotate(0,368,320)"/><rect x="362" y="326" width="12" height="12" transform="rotate(0,368,332)"/><path d="M 362 338v 12h 12v -6a 6 6, 0, 0, 0, -6 -6" transform="rotate(90,368,344)"/><path d="M 362 362v 12h 6a 6 6, 0, 0, 0, 0 -12" transform="rotate(0,368,368)"/><path d="M 374 98v 12h 6a 6 6, 0, 0, 0, 0 -12" transform="rotate(-90,380,104)"/><rect x="374" y="110" width="12" height="12" transform="rotate(0,380,116)"/><circle cx="380" cy="152" r="6" transform="rotate(0,380,152)"/><path d="M 374 170v 12h 12v -6a 6 6, 0, 0, 0, -6 -6" transform="rotate(0,380,176)"/><path d="M 374 182v 12h 6a 6 6, 0, 0, 0, 0 -12" transform="rotate(90,380,188)"/><circle cx="380" cy="212" r="6" transform="rotate(0,380,212)"/><path d="M 374 230v 12h 12v -6a 6 6, 0, 0, 0, -6 -6" transform="rotate(0,380,236)"/><rect x="374" y="242" width="12" height="12" transform="rotate(0,380,248)"/><rect x="374" y="254" width="12" height="12" transform="rotate(0,380,260)"/><rect x="374" y="266" width="12" height="12" transform="rotate(0,380,272)"/><rect x="374" y="278" width="12" height="12" transform="rotate(0,380,284)"/><path d="M 374 290v 12h 12v -6a 6 6, 0, 0, 0, -6 -6" transform="rotate(180,380,296)"/><path d="M 386 110v 12h 12v -6a 6 6, 0, 0, 0, -6 -6" transform="rotate(0,392,116)"/><path d="M 386 122v 12h 6a 6 6, 0, 0, 0, 0 -12" transform="rotate(90,392,128)"/><path d="M 386 242v 12h 12v -6a 6 6, 0, 0, 0, -6 -6" transform="rotate(0,392,248)"/><rect x="386" y="254" width="12" height="12" transform="rotate(0,392,260)"/><path d="M 386 266v 12h 12v -6a 6 6, 0, 0, 0, -6 -6" transform="rotate(90,392,272)"/><path d="M 386 290v 12h 12v -6a 6 6, 0, 0, 0, -6 -6" transform="rotate(0,392,296)"/><path d="M 386 302v 12h 6a 6 6, 0, 0, 0, 0 -12" transform="rotate(90,392,308)"/><circle cx="392" cy="392" r="6" transform="rotate(0,392,392)"/><path clip-rule="evenodd" d="M 44 2a 42 42 0 1 0 0.1 0zm 0 12a 30 30 0 1 1 -0.1 0Z" transform="rotate(0,44,44)"/><circle cx="44" cy="44" r="18" transform="rotate(0,44,44)"/><path clip-rule="evenodd" d="M 356 2a 42 42 0 1 0 0.1 0zm 0 12a 30 30 0 1 1 -0.1 0Z" transform="rotate(90,356,44)"/><circle cx="356" cy="44" r="18" transform="rotate(90,356,44)"/><path clip-rule="evenodd" d="M 44 314a 42 42 0 1 0 0.1 0zm 0 12a 30 30 0 1 1 -0.1 0Z" transform="rotate(-90,44,356)"/><circle cx="44" cy="356" r="18" transform="rotate(-90,44,356)"/></clipPath></defs><rect x="0" y="0" height="400" width="400" clip-path="url('#clip-path-background-color')" fill="#ffffff"/><rect x="2" y="2" height="396" width="396" clip-path="url('#clip-path-dot-color')" fill="#000000"/><image href="/static/logos/draftandflowcropped.png" x="134" y="150.5" width="132px" height="99px"/></svg>