<?xml version="1.0" encoding="utf-8"?>
<svg viewBox="87.1263 2.773 340.3668 315.604" xmlns="http://www.w3.org/2000/svg">
  <path d="M 89.299 99.129 L 89.299 60.729 Q 89.299 59.929 90.099 59.929 L 102.099 59.929 Q 105.599 59.929 107.449 61.779 Q 109.299 63.629 109.299 67.179 L 109.299 92.729 Q 109.299 96.229 107.449 98.079 Q 105.599 99.929 102.099 99.929 L 90.099 99.929 Q 89.299 99.929 89.299 99.129 Z M 96.099 93.329 L 100.699 93.329 Q 102.699 93.329 102.699 91.329 L 102.699 68.579 Q 102.699 66.529 100.699 66.529 L 96.099 66.529 Z M 134.847 67.129 L 134.847 79.329 Q 134.847 84.329 131.197 85.929 L 134.647 99.029 Q 134.897 99.929 133.947 99.929 L 128.747 99.929 Q 128.047 99.929 127.897 99.229 L 124.547 86.529 L 121.097 86.529 L 121.097 99.129 Q 121.097 99.929 120.297 99.929 L 115.097 99.929 Q 114.297 99.929 114.297 99.129 L 114.297 60.729 Q 114.297 59.929 115.097 59.929 L 127.647 59.929 Q 131.197 59.929 133.022 61.779 Q 134.847 63.629 134.847 67.129 Z M 121.097 79.929 L 126.047 79.929 Q 128.047 79.929 128.047 77.929 L 128.047 68.529 Q 128.047 66.529 126.047 66.529 L 121.097 66.529 Z M 162.446 99.929 L 157.146 99.929 Q 156.496 99.929 156.346 99.229 L 154.946 91.929 L 146.046 91.929 L 144.696 99.229 Q 144.546 99.929 143.896 99.929 L 138.546 99.929 Q 137.646 99.929 137.896 99.079 L 146.196 60.629 Q 146.346 59.929 147.046 59.929 L 153.996 59.929 Q 154.696 59.929 154.846 60.629 L 163.146 99.079 Q 163.296 99.929 162.446 99.929 Z M 153.696 86.129 L 150.496 68.679 L 147.296 86.129 Z M 187.644 60.729 L 187.644 65.729 Q 187.644 66.529 186.844 66.529 L 174.444 66.529 L 174.444 76.579 L 183.844 76.579 Q 184.644 76.579 184.644 77.379 L 184.644 82.379 Q 184.644 83.179 183.844 83.179 L 174.444 83.179 L 174.444 99.129 Q 174.444 99.929 173.644 99.929 L 168.444 99.929 Q 167.644 99.929 167.644 99.129 L 167.644 60.729 Q 167.644 59.929 168.444 59.929 L 186.844 59.929 Q 187.644 59.929 187.644 60.729 Z M 192.445 59.929 L 210.845 59.929 Q 211.645 59.929 211.645 60.729 L 211.645 65.729 Q 211.645 66.529 210.845 66.529 L 205.045 66.529 L 205.045 99.129 Q 205.045 99.929 204.245 99.929 L 199.045 99.929 Q 198.245 99.929 198.245 99.129 L 198.245 66.529 L 192.445 66.529 Q 191.645 66.529 191.645 65.729 L 191.645 60.729 Q 191.645 59.929 192.445 59.929 Z" transform="matrix(2.690181, -0.148518, 0.007718, 2.841271, -146.76387, -107.366951)" style="fill: rgb(7, 6, 0);"/>
  <path d="M 103.982 177.836 L 112.706 177.836 C 113.347 177.836 113.66 178.173 113.624 178.852 L 113.423 183.524 C 113.392 184.202 113.057 184.539 112.412 184.539 L 105.035 184.539 C 103.75 184.539 103.078 185.215 103.017 186.571 L 102.769 192.309 C 102.705 193.625 103.321 194.286 104.608 194.286 L 109.092 194.286 L 109.182 192.256 C 109.211 191.581 109.546 191.24 110.189 191.24 L 114.77 191.24 C 115.411 191.24 115.72 191.581 115.688 192.256 L 115.602 194.286 L 117.625 194.286 C 118.269 194.286 118.575 194.627 118.546 195.302 L 118.339 199.974 C 118.31 200.652 117.972 200.99 117.328 200.99 L 115.305 200.99 L 114.584 217.44 C 114.551 218.118 114.213 218.456 113.572 218.456 L 102.193 218.456 C 99.912 218.456 98.203 217.831 97.069 216.577 C 95.933 215.326 95.421 213.516 95.522 211.144 L 95.956 201.295 C 95.999 200.381 96.32 199.594 96.927 198.932 C 97.536 198.273 98.278 197.857 99.158 197.688 L 99.159 197.589 C 98.295 197.42 97.59 197.003 97.041 196.341 C 96.496 195.683 96.239 194.899 96.279 193.983 L 96.669 185.148 C 96.77 182.775 97.443 180.969 98.693 179.715 C 99.935 178.461 101.698 177.836 103.982 177.836 Z M 108.795 200.99 L 104.309 200.99 C 103.023 200.99 102.354 201.668 102.296 203.022 L 102.002 209.722 C 101.938 211.078 102.55 211.754 103.838 211.754 L 108.322 211.754 L 108.795 200.99 Z" style="white-space: pre; paint-order: stroke; fill-opacity: 0; fill: rgb(199, 199, 199); stroke: rgb(0, 0, 0); transform-origin: 107.029px 198.146px;" transform="matrix(0.998480021954, -0.055124014616, 0.055124014616, 0.998480021954, 0.000001387492, -9.38408e-7)"/>
  <path d="M 112.949 129.186 L 112.949 134.186 Q 112.949 134.986 112.149 134.986 L 99.749 134.986 L 99.749 145.036 L 109.149 145.036 Q 109.949 145.036 109.949 145.836 L 109.949 150.836 Q 109.949 151.636 109.149 151.636 L 99.749 151.636 L 99.749 167.586 Q 99.749 168.386 98.949 168.386 L 93.749 168.386 Q 92.949 168.386 92.949 167.586 L 92.949 129.186 Q 92.949 128.386 93.749 128.386 L 112.149 128.386 Q 112.949 128.386 112.949 129.186 Z M 124.247 161.786 L 124.247 129.186 Q 124.247 128.386 123.447 128.386 L 118.247 128.386 Q 117.447 128.386 117.447 129.186 L 117.447 167.586 Q 117.447 168.386 118.247 168.386 L 136.147 168.386 Q 136.947 168.386 136.947 167.586 L 136.947 162.586 Q 136.947 161.786 136.147 161.786 Z M 140.445 161.186 L 140.445 135.586 Q 140.445 132.086 142.295 130.236 Q 144.145 128.386 147.645 128.386 L 153.245 128.386 Q 156.745 128.386 158.595 130.236 Q 160.445 132.086 160.445 135.586 L 160.445 161.186 Q 160.445 164.686 158.595 166.536 Q 156.745 168.386 153.245 168.386 L 147.645 168.386 Q 144.145 168.386 142.295 166.536 Q 140.445 164.686 140.445 161.186 Z M 149.095 161.936 L 151.995 161.936 Q 153.995 161.936 153.995 159.936 L 153.995 136.836 Q 153.995 134.836 151.995 134.836 L 149.095 134.836 Q 147.095 134.836 147.095 136.836 L 147.095 159.936 Q 147.095 161.936 149.095 161.936 Z M 191.794 128.386 L 196.544 128.386 Q 197.594 128.386 197.494 129.436 L 193.194 167.436 Q 193.144 168.386 192.144 168.386 L 187.244 168.386 Q 186.344 168.386 186.144 167.486 L 180.944 144.886 L 175.694 167.536 Q 175.444 168.386 174.594 168.386 L 169.594 168.386 Q 168.594 168.386 168.544 167.436 L 164.444 129.436 Q 164.344 128.386 165.394 128.386 L 170.144 128.386 Q 171.094 128.386 171.194 129.336 L 173.144 152.736 L 173.394 152.736 L 178.344 129.286 Q 178.544 128.386 179.444 128.386 L 182.444 128.386 Q 183.344 128.386 183.544 129.286 L 188.444 152.736 L 188.694 152.736 L 190.744 129.336 Q 190.844 128.386 191.794 128.386 Z" transform="matrix(2.690181, -0.148521, -0.002695, 2.841843, -125.60334, -174.939346)"/>
</svg>