<?xml version="1.0" encoding="utf-8"?>
<svg viewBox="0 0 500 398" xmlns="http://www.w3.org/2000/svg">
  <path d="M 89.299 99.129 L 89.299 60.729 Q 89.299 59.929 90.099 59.929 L 102.099 59.929 Q 105.599 59.929 107.449 61.779 Q 109.299 63.629 109.299 67.179 L 109.299 92.729 Q 109.299 96.229 107.449 98.079 Q 105.599 99.929 102.099 99.929 L 90.099 99.929 Q 89.299 99.929 89.299 99.129 Z M 96.099 93.329 L 100.699 93.329 Q 102.699 93.329 102.699 91.329 L 102.699 68.579 Q 102.699 66.529 100.699 66.529 L 96.099 66.529 Z M 134.849 67.129 L 134.849 79.329 Q 134.849 84.329 131.199 85.929 L 134.649 99.029 Q 134.899 99.929 133.949 99.929 L 128.749 99.929 Q 128.049 99.929 127.899 99.229 L 124.549 86.529 L 121.099 86.529 L 121.099 99.129 Q 121.099 99.929 120.299 99.929 L 115.099 99.929 Q 114.299 99.929 114.299 99.129 L 114.299 60.729 Q 114.299 59.929 115.099 59.929 L 127.649 59.929 Q 131.199 59.929 133.024 61.779 Q 134.849 63.629 134.849 67.129 Z M 121.099 79.929 L 126.049 79.929 Q 128.049 79.929 128.049 77.929 L 128.049 68.529 Q 128.049 66.529 126.049 66.529 L 121.099 66.529 Z M 162.448 99.929 L 157.148 99.929 Q 156.498 99.929 156.348 99.229 L 154.948 91.929 L 146.048 91.929 L 144.698 99.229 Q 144.548 99.929 143.898 99.929 L 138.548 99.929 Q 137.648 99.929 137.898 99.079 L 146.198 60.629 Q 146.348 59.929 147.048 59.929 L 153.998 59.929 Q 154.698 59.929 154.848 60.629 L 163.148 99.079 Q 163.298 99.929 162.448 99.929 Z M 153.698 86.129 L 150.498 68.679 L 147.298 86.129 Z M 187.646 60.729 L 187.646 65.729 Q 187.646 66.529 186.846 66.529 L 174.446 66.529 L 174.446 76.579 L 183.846 76.579 Q 184.646 76.579 184.646 77.379 L 184.646 82.379 Q 184.646 83.179 183.846 83.179 L 174.446 83.179 L 174.446 99.129 Q 174.446 99.929 173.646 99.929 L 168.446 99.929 Q 167.646 99.929 167.646 99.129 L 167.646 60.729 Q 167.646 59.929 168.446 59.929 L 186.846 59.929 Q 187.646 59.929 187.646 60.729 Z M 192.448 59.929 L 210.848 59.929 Q 211.648 59.929 211.648 60.729 L 211.648 65.729 Q 211.648 66.529 210.848 66.529 L 205.048 66.529 L 205.048 99.129 Q 205.048 99.929 204.248 99.929 L 199.048 99.929 Q 198.248 99.929 198.248 99.129 L 198.248 66.529 L 192.448 66.529 Q 191.648 66.529 191.648 65.729 L 191.648 60.729 Q 191.648 59.929 192.448 59.929 Z" transform="matrix(3.912652, -0.216007, 0.011224, 4.1324, -338.207611, -190.028564)" style="fill: rgb(7, 6, 0);"/>
  <path d="M 26.485 224.775 L 39.172 224.775 C 40.105 224.775 40.559 225.266 40.508 226.255 L 40.214 233.049 C 40.17 234.036 39.682 234.525 38.744 234.525 L 28.016 234.525 C 26.145 234.525 25.169 235.508 25.081 237.481 L 24.719 245.827 C 24.626 247.741 25.522 248.701 27.393 248.701 L 33.917 248.701 L 34.047 245.749 C 34.09 244.768 34.577 244.273 35.51 244.273 L 42.174 244.273 C 43.107 244.273 43.555 244.768 43.508 245.749 L 43.383 248.701 L 46.327 248.701 C 47.263 248.701 47.707 249.197 47.665 250.179 L 47.364 256.974 C 47.322 257.961 46.831 258.452 45.894 258.452 L 42.951 258.452 L 41.904 282.378 C 41.855 283.364 41.364 283.855 40.432 283.855 L 23.881 283.855 C 20.565 283.855 18.078 282.947 16.429 281.122 C 14.777 279.303 14.032 276.67 14.179 273.221 L 14.81 258.895 C 14.874 257.566 15.34 256.423 16.223 255.458 C 17.109 254.501 18.187 253.895 19.468 253.65 L 19.469 253.506 C 18.211 253.259 17.186 252.653 16.388 251.691 C 15.596 250.733 15.223 249.593 15.28 248.261 L 15.848 235.412 C 15.994 231.96 16.973 229.333 18.791 227.509 C 20.596 225.686 23.162 224.775 26.485 224.775 Z M 33.483 258.452 L 26.96 258.452 C 25.09 258.452 24.115 259.437 24.031 261.407 L 23.604 271.152 C 23.512 273.125 24.402 274.108 26.274 274.108 L 32.796 274.108 L 33.483 258.452 Z" style="white-space: pre; paint-order: stroke; fill-opacity: 0; fill: rgb(199, 199, 199); stroke: rgb(0, 0, 0); stroke-width: 3px; transform-origin: 30.9143px 254.315px;" transform="matrix(0.998480021954, -0.055124014616, 0.055124014616, 0.998480021954, 0.000001601439, -1.85155e-7)"/>
  <path d="M 112.949 129.186 L 112.949 134.186 Q 112.949 134.986 112.149 134.986 L 99.749 134.986 L 99.749 145.036 L 109.149 145.036 Q 109.949 145.036 109.949 145.836 L 109.949 150.836 Q 109.949 151.636 109.149 151.636 L 99.749 151.636 L 99.749 167.586 Q 99.749 168.386 98.949 168.386 L 93.749 168.386 Q 92.949 168.386 92.949 167.586 L 92.949 129.186 Q 92.949 128.386 93.749 128.386 L 112.149 128.386 Q 112.949 128.386 112.949 129.186 Z M 124.247 161.786 L 124.247 129.186 Q 124.247 128.386 123.447 128.386 L 118.247 128.386 Q 117.447 128.386 117.447 129.186 L 117.447 167.586 Q 117.447 168.386 118.247 168.386 L 136.147 168.386 Q 136.947 168.386 136.947 167.586 L 136.947 162.586 Q 136.947 161.786 136.147 161.786 Z M 140.446 161.186 L 140.446 135.586 Q 140.446 132.086 142.296 130.236 Q 144.146 128.386 147.646 128.386 L 153.246 128.386 Q 156.746 128.386 158.596 130.236 Q 160.446 132.086 160.446 135.586 L 160.446 161.186 Q 160.446 164.686 158.596 166.536 Q 156.746 168.386 153.246 168.386 L 147.646 168.386 Q 144.146 168.386 142.296 166.536 Q 140.446 164.686 140.446 161.186 Z M 149.096 161.936 L 151.996 161.936 Q 153.996 161.936 153.996 159.936 L 153.996 136.836 Q 153.996 134.836 151.996 134.836 L 149.096 134.836 Q 147.096 134.836 147.096 136.836 L 147.096 159.936 Q 147.096 161.936 149.096 161.936 Z M 191.796 128.386 L 196.546 128.386 Q 197.596 128.386 197.496 129.436 L 193.196 167.436 Q 193.146 168.386 192.146 168.386 L 187.246 168.386 Q 186.346 168.386 186.146 167.486 L 180.946 144.886 L 175.696 167.536 Q 175.446 168.386 174.596 168.386 L 169.596 168.386 Q 168.596 168.386 168.546 167.436 L 164.446 129.436 Q 164.346 128.386 165.396 128.386 L 170.146 128.386 Q 171.096 128.386 171.196 129.336 L 173.146 152.736 L 173.396 152.736 L 178.346 129.286 Q 178.546 128.386 179.446 128.386 L 182.446 128.386 Q 183.346 128.386 183.546 129.286 L 188.446 152.736 L 188.696 152.736 L 190.746 129.336 Q 190.846 128.386 191.796 128.386 Z" transform="matrix(3.912652, -0.216011, -0.003919, 4.133232, -307.431305, -288.30719)"/>
</svg>