<?xml version="1.0" standalone="no"?>
<!DOCTYPE svg PUBLIC "-//W3C//DTD SVG 20010904//EN"
 "http://www.w3.org/TR/2001/REC-SVG-20010904/DTD/svg10.dtd">
<svg version="1.0" xmlns="http://www.w3.org/2000/svg"
 width="206.000000pt" height="206.000000pt" viewBox="0 0 206.000000 206.000000"
 preserveAspectRatio="xMidYMid meet">
<metadata>
Created by potrace 1.14, written by Peter Selinger 2001-2017
</metadata>
<g transform="translate(0.000000,206.000000) scale(0.100000,-0.100000)"
fill="#000000" stroke="none">
<path d="M1325 1721 c-9 -15 -208 -147 -233 -156 -20 -6 -32 2 -76 48 l-51 55
-97 -66 c-54 -37 -185 -128 -293 -202 -107 -74 -271 -186 -363 -248 -92 -62
-168 -117 -170 -123 -2 -5 7 -10 20 -10 13 -1 32 -3 43 -4 11 -1 83 -6 160
-10 77 -4 142 -9 145 -12 3 -3 -85 -3 -194 0 l-199 5 6 -161 c4 -89 7 -168 7
-175 0 -11 17 -12 78 -7 42 4 88 8 102 10 14 3 93 11 175 20 83 8 157 17 165
19 8 3 56 7 105 11 50 4 99 8 110 10 41 9 102 16 343 40 136 14 261 27 277 29
54 8 189 25 240 30 406 41 385 38 391 63 11 41 -3 89 -38 136 -43 59 -184 230
-236 287 -23 25 -42 48 -42 51 0 3 -13 19 -28 37 -15 17 -81 98 -147 181 -115
144 -121 150 -157 150 -20 1 -39 -3 -43 -8z m153 -688 c49 -67 -52 -195 -129
-162 -36 14 -49 37 -49 83 0 41 47 103 83 108 32 5 80 -9 95 -29z m-538 -64
c36 -38 37 -49 8 -93 -43 -65 -103 -83 -145 -44 -26 25 -29 61 -9 109 10 25
24 36 52 45 57 18 61 17 94 -17z m-394 -150 c19 -21 18 -21 -10 -45 -22 -20
-31 -22 -42 -13 -19 15 -18 38 3 61 21 23 26 23 49 -3z m-258 -28 c20 -12 -13
-75 -34 -67 -9 3 -18 6 -20 6 -9 0 -3 47 8 58 14 14 28 15 46 3z"/>
<path d="M1794 801 c-74 -40 -97 -71 -96 -132 1 -89 67 -140 173 -134 70 4
110 26 138 75 37 66 27 81 -50 74 -75 -8 -89 -13 -89 -34 0 -21 5 -23 60 -21
l35 2 -24 -21 c-71 -61 -181 -21 -181 66 0 65 92 105 172 75 21 -8 29 -6 42 8
22 25 21 28 -19 41 -58 19 -127 20 -161 1z"/>
<path d="M1566 771 c-3 -5 -4 -39 -2 -75 2 -36 1 -68 -3 -71 -4 -2 -38 27 -76
65 -104 106 -129 104 -120 -10 15 -173 23 -204 53 -193 27 10 29 19 19 89 -5
36 -7 68 -3 71 3 4 40 -26 81 -66 55 -54 80 -72 97 -69 22 3 23 6 20 103 -3
125 -12 159 -39 163 -12 2 -24 -1 -27 -7z"/>
<path d="M1230 720 c0 -50 22 -227 30 -240 5 -7 16 -9 30 -5 21 7 22 10 16 94
-12 150 -21 181 -51 181 -21 0 -25 -5 -25 -30z"/>
<path d="M1044 605 c4 -69 10 -132 13 -141 4 -12 16 -14 62 -8 64 7 94 20 88
37 -2 7 -20 13 -41 15 -45 4 -51 16 -65 126 -9 76 -19 96 -50 96 -11 0 -13
-22 -7 -125z"/>
<path d="M805 699 c-140 -33 -174 -178 -58 -245 38 -23 52 -26 113 -22 50 3
77 9 97 24 54 40 22 70 -42 40 -63 -30 -138 -18 -160 25 -29 56 -9 103 55 127
26 9 38 9 105 -3 31 -5 44 -3 53 8 15 17 4 29 -47 46 -39 13 -60 13 -116 0z"/>
<path d="M544 635 c-14 -25 -29 -45 -33 -45 -4 0 -22 16 -41 35 -20 21 -44 35
-58 35 -30 0 -26 -11 30 -91 24 -35 46 -81 53 -111 8 -37 17 -54 30 -56 25 -5
35 15 35 78 0 40 8 72 30 118 36 77 37 82 5 82 -18 0 -31 -11 -51 -45z"/>
<path d="M154 635 c-47 -20 -92 -63 -104 -101 -17 -49 9 -115 54 -144 66 -40
171 -35 230 11 14 11 24 25 21 30 -9 14 -59 11 -81 -6 -23 -18 -80 -19 -113
-2 -14 6 -33 26 -44 44 -17 29 -17 34 -2 62 24 47 64 62 148 59 58 -2 72 0 72
12 0 34 -126 58 -181 35z"/>
<path d="M1977 514 c-1 -1 -40 -4 -87 -8 -47 -4 -96 -8 -110 -11 -14 -2 -56
-6 -95 -10 -38 -3 -88 -7 -110 -10 -59 -7 -118 -13 -235 -25 -58 -5 -125 -12
-150 -15 -25 -2 -94 -9 -155 -15 -60 -5 -132 -13 -160 -16 -27 -3 -68 -7 -90
-9 -22 -3 -85 -9 -140 -14 -520 -51 -543 -49 478 -50 l939 -1 -5 93 -4 92 -37
0 c-20 1 -38 0 -39 -1z"/>
</g>
</svg>
